{
	"asset":{
		"generator":"Khronos glTF Blender I/O v4.5.48",
		"version":"2.0"
	},
	"extensionsUsed":[
		"KHR_materials_specular"
	],
	"scene":0,
	"scenes":[
		{
			"name":"Scene",
			"nodes":[
				0,
				1,
				2,
				3,
				4,
				5,
				6,
				7,
				8,
				9,
				10,
				11,
				12,
				13,
				14,
				15,
				16,
				17,
				18,
				19,
				20,
				21,
				22,
				23,
				24,
				25,
				26,
				27,
				28,
				29,
				30,
				31,
				32,
				33,
				34,
				35,
				36,
				37,
				38,
				39,
				40,
				41,
				42,
				43
			]
		}
	],
	"nodes":[
		{
			"mesh":0,
			"name":"Cube"
		},
		{
			"mesh":1,
			"name":"Cube.003"
		},
		{
			"mesh":2,
			"name":"Cube.005"
		},
		{
			"mesh":3,
			"name":"Cube.004"
		},
		{
			"mesh":4,
			"name":"Cube.007"
		},
		{
			"mesh":5,
			"name":"Cube.008"
		},
		{
			"mesh":6,
			"name":"Cube.006"
		},
		{
			"mesh":7,
			"name":"Cube.010"
		},
		{
			"mesh":8,
			"name":"Cube.011"
		},
		{
			"mesh":9,
			"name":"Cube.012"
		},
		{
			"mesh":10,
			"name":"Cube.013"
		},
		{
			"mesh":11,
			"name":"Cube.015"
		},
		{
			"mesh":12,
			"name":"Cube.016"
		},
		{
			"mesh":13,
			"name":"Cube.017"
		},
		{
			"mesh":14,
			"name":"Cube.018"
		},
		{
			"mesh":15,
			"name":"Cube.020"
		},
		{
			"mesh":16,
			"name":"Cube.014"
		},
		{
			"mesh":17,
			"name":"Cube.019"
		},
		{
			"mesh":18,
			"name":"Cube.025"
		},
		{
			"mesh":19,
			"name":"Cube.028"
		},
		{
			"mesh":20,
			"name":"Cube.029"
		},
		{
			"mesh":21,
			"name":"Cube.030"
		},
		{
			"mesh":22,
			"name":"Cube.031"
		},
		{
			"mesh":23,
			"name":"Cube.034"
		},
		{
			"mesh":24,
			"name":"Cube.035"
		},
		{
			"mesh":25,
			"name":"Cube.033"
		},
		{
			"mesh":26,
			"name":"Cube.036"
		},
		{
			"mesh":27,
			"name":"Cube.037"
		},
		{
			"mesh":28,
			"name":"Cube.032"
		},
		{
			"mesh":29,
			"name":"Cube.038"
		},
		{
			"mesh":30,
			"name":"Cube.039"
		},
		{
			"mesh":31,
			"name":"Cube.040"
		},
		{
			"mesh":32,
			"name":"Cube.041"
		},
		{
			"mesh":33,
			"name":"Cube.042"
		},
		{
			"mesh":34,
			"name":"Cube.043"
		},
		{
			"mesh":35,
			"name":"Cube.044"
		},
		{
			"mesh":36,
			"name":"Cube.002"
		},
		{
			"mesh":37,
			"name":"Cube.045"
		},
		{
			"mesh":38,
			"name":"Cube.001"
		},
		{
			"mesh":39,
			"name":"Cube.009"
		},
		{
			"mesh":40,
			"name":"Cube.021"
		},
		{
			"mesh":41,
			"name":"Cube.024"
		},
		{
			"mesh":42,
			"name":"Cube.026"
		},
		{
			"mesh":43,
			"name":"Cube.022"
		}
	],
	"materials":[
		{
			"doubleSided":true,
			"extensions":{
				"KHR_materials_specular":{
					"specularFactor":0.20000000298023224
				}
			},
			"name":"Rough Brick Wall Old",
			"normalTexture":{
				"index":0,
				"texCoord":1
			},
			"pbrMetallicRoughness":{
				"baseColorTexture":{
					"index":1,
					"texCoord":1
				},
				"metallicFactor":0.30000001192092896,
				"metallicRoughnessTexture":{
					"index":2,
					"texCoord":1
				}
			}
		}
	],
	"meshes":[
		{
			"name":"Cube",
			"primitives":[
				{
					"attributes":{
						"POSITION":0,
						"NORMAL":1,
						"TEXCOORD_0":2,
						"TEXCOORD_1":3
					},
					"indices":4,
					"material":0
				}
			]
		},
		{
			"name":"Cube.003",
			"primitives":[
				{
					"attributes":{
						"POSITION":5,
						"NORMAL":6,
						"TEXCOORD_0":7,
						"TEXCOORD_1":8
					},
					"indices":4,
					"material":0
				}
			]
		},
		{
			"name":"Cube.005",
			"primitives":[
				{
					"attributes":{
						"POSITION":9,
						"NORMAL":10,
						"TEXCOORD_0":11,
						"TEXCOORD_1":12
					},
					"indices":4,
					"material":0
				}
			]
		},
		{
			"name":"Cube.006",
			"primitives":[
				{
					"attributes":{
						"POSITION":13,
						"NORMAL":14,
						"TEXCOORD_0":15,
						"TEXCOORD_1":16
					},
					"indices":4,
					"material":0
				}
			]
		},
		{
			"name":"Cube.008",
			"primitives":[
				{
					"attributes":{
						"POSITION":17,
						"NORMAL":18,
						"TEXCOORD_0":19,
						"TEXCOORD_1":20
					},
					"indices":4,
					"material":0
				}
			]
		},
		{
			"name":"Cube.009",
			"primitives":[
				{
					"attributes":{
						"POSITION":21,
						"NORMAL":22,
						"TEXCOORD_0":23,
						"TEXCOORD_1":24
					},
					"indices":4,
					"material":0
				}
			]
		},
		{
			"name":"Cube.010",
			"primitives":[
				{
					"attributes":{
						"POSITION":25,
						"NORMAL":26,
						"TEXCOORD_0":27,
						"TEXCOORD_1":28
					},
					"indices":4,
					"material":0
				}
			]
		},
		{
			"name":"Cube.012",
			"primitives":[
				{
					"attributes":{
						"POSITION":29,
						"NORMAL":30,
						"TEXCOORD_0":31,
						"TEXCOORD_1":32
					},
					"indices":4,
					"material":0
				}
			]
		},
		{
			"name":"Cube.013",
			"primitives":[
				{
					"attributes":{
						"POSITION":33,
						"NORMAL":34,
						"TEXCOORD_0":35,
						"TEXCOORD_1":36
					},
					"indices":4,
					"material":0
				}
			]
		},
		{
			"name":"Cube.014",
			"primitives":[
				{
					"attributes":{
						"POSITION":37,
						"NORMAL":38,
						"TEXCOORD_0":39,
						"TEXCOORD_1":40
					},
					"indices":4,
					"material":0
				}
			]
		},
		{
			"name":"Cube.015",
			"primitives":[
				{
					"attributes":{
						"POSITION":41,
						"NORMAL":42,
						"TEXCOORD_0":43,
						"TEXCOORD_1":44
					},
					"indices":4,
					"material":0
				}
			]
		},
		{
			"name":"Cube.019",
			"primitives":[
				{
					"attributes":{
						"POSITION":45,
						"NORMAL":46,
						"TEXCOORD_0":47,
						"TEXCOORD_1":48
					},
					"indices":4,
					"material":0
				}
			]
		},
		{
			"name":"Cube.020",
			"primitives":[
				{
					"attributes":{
						"POSITION":49,
						"NORMAL":50,
						"TEXCOORD_0":51,
						"TEXCOORD_1":52
					},
					"indices":4,
					"material":0
				}
			]
		},
		{
			"name":"Cube.021",
			"primitives":[
				{
					"attributes":{
						"POSITION":53,
						"NORMAL":54,
						"TEXCOORD_0":55,
						"TEXCOORD_1":56
					},
					"indices":4,
					"material":0
				}
			]
		},
		{
			"name":"Cube.022",
			"primitives":[
				{
					"attributes":{
						"POSITION":57,
						"NORMAL":58,
						"TEXCOORD_0":59,
						"TEXCOORD_1":60
					},
					"indices":4,
					"material":0
				}
			]
		},
		{
			"name":"Cube.024",
			"primitives":[
				{
					"attributes":{
						"POSITION":61,
						"NORMAL":62,
						"TEXCOORD_0":63,
						"TEXCOORD_1":64
					},
					"indices":4,
					"material":0
				}
			]
		},
		{
			"name":"Cube.026",
			"primitives":[
				{
					"attributes":{
						"POSITION":65,
						"NORMAL":66,
						"TEXCOORD_0":67,
						"TEXCOORD_1":68
					},
					"indices":4,
					"material":0
				}
			]
		},
		{
			"name":"Cube.030",
			"primitives":[
				{
					"attributes":{
						"POSITION":69,
						"NORMAL":70,
						"TEXCOORD_0":71,
						"TEXCOORD_1":72
					},
					"indices":4,
					"material":0
				}
			]
		},
		{
			"name":"Cube.031",
			"primitives":[
				{
					"attributes":{
						"POSITION":73,
						"NORMAL":74,
						"TEXCOORD_0":75,
						"TEXCOORD_1":76
					},
					"indices":4,
					"material":0
				}
			]
		},
		{
			"name":"Cube.035",
			"primitives":[
				{
					"attributes":{
						"POSITION":77,
						"NORMAL":78,
						"TEXCOORD_0":79,
						"TEXCOORD_1":80
					},
					"indices":4,
					"material":0
				}
			]
		},
		{
			"name":"Cube.037",
			"primitives":[
				{
					"attributes":{
						"POSITION":81,
						"NORMAL":82,
						"TEXCOORD_0":83,
						"TEXCOORD_1":84
					},
					"indices":4,
					"material":0
				}
			]
		},
		{
			"name":"Cube.038",
			"primitives":[
				{
					"attributes":{
						"POSITION":85,
						"NORMAL":86,
						"TEXCOORD_0":87,
						"TEXCOORD_1":88
					},
					"indices":4,
					"material":0
				}
			]
		},
		{
			"name":"Cube.039",
			"primitives":[
				{
					"attributes":{
						"POSITION":89,
						"NORMAL":90,
						"TEXCOORD_0":91,
						"TEXCOORD_1":92
					},
					"indices":4,
					"material":0
				}
			]
		},
		{
			"name":"Cube.042",
			"primitives":[
				{
					"attributes":{
						"POSITION":93,
						"NORMAL":94,
						"TEXCOORD_0":95,
						"TEXCOORD_1":96
					},
					"indices":4,
					"material":0
				}
			]
		},
		{
			"name":"Cube.043",
			"primitives":[
				{
					"attributes":{
						"POSITION":97,
						"NORMAL":98,
						"TEXCOORD_0":99,
						"TEXCOORD_1":100
					},
					"indices":4,
					"material":0
				}
			]
		},
		{
			"name":"Cube.044",
			"primitives":[
				{
					"attributes":{
						"POSITION":101,
						"NORMAL":102,
						"TEXCOORD_0":103,
						"TEXCOORD_1":104
					},
					"indices":4,
					"material":0
				}
			]
		},
		{
			"name":"Cube.045",
			"primitives":[
				{
					"attributes":{
						"POSITION":105,
						"NORMAL":106,
						"TEXCOORD_0":107,
						"TEXCOORD_1":108
					},
					"indices":4,
					"material":0
				}
			]
		},
		{
			"name":"Cube.046",
			"primitives":[
				{
					"attributes":{
						"POSITION":109,
						"NORMAL":110,
						"TEXCOORD_0":111,
						"TEXCOORD_1":112
					},
					"indices":4,
					"material":0
				}
			]
		},
		{
			"name":"Cube.047",
			"primitives":[
				{
					"attributes":{
						"POSITION":113,
						"NORMAL":114,
						"TEXCOORD_0":115,
						"TEXCOORD_1":116
					},
					"indices":4,
					"material":0
				}
			]
		},
		{
			"name":"Cube.048",
			"primitives":[
				{
					"attributes":{
						"POSITION":117,
						"NORMAL":118,
						"TEXCOORD_0":119,
						"TEXCOORD_1":120
					},
					"indices":4,
					"material":0
				}
			]
		},
		{
			"name":"Cube.049",
			"primitives":[
				{
					"attributes":{
						"POSITION":121,
						"NORMAL":122,
						"TEXCOORD_0":123,
						"TEXCOORD_1":124
					},
					"indices":4,
					"material":0
				}
			]
		},
		{
			"name":"Cube.050",
			"primitives":[
				{
					"attributes":{
						"POSITION":125,
						"NORMAL":126,
						"TEXCOORD_0":127,
						"TEXCOORD_1":128
					},
					"indices":4,
					"material":0
				}
			]
		},
		{
			"name":"Cube.051",
			"primitives":[
				{
					"attributes":{
						"POSITION":129,
						"NORMAL":130,
						"TEXCOORD_0":131,
						"TEXCOORD_1":132
					},
					"indices":4,
					"material":0
				}
			]
		},
		{
			"name":"Cube.053",
			"primitives":[
				{
					"attributes":{
						"POSITION":133,
						"NORMAL":134,
						"TEXCOORD_0":135,
						"TEXCOORD_1":136
					},
					"indices":4,
					"material":0
				}
			]
		},
		{
			"name":"Cube.054",
			"primitives":[
				{
					"attributes":{
						"POSITION":137,
						"NORMAL":138,
						"TEXCOORD_0":139,
						"TEXCOORD_1":140
					},
					"indices":4,
					"material":0
				}
			]
		},
		{
			"name":"Cube.055",
			"primitives":[
				{
					"attributes":{
						"POSITION":141,
						"NORMAL":142,
						"TEXCOORD_0":143,
						"TEXCOORD_1":144
					},
					"indices":4,
					"material":0
				}
			]
		},
		{
			"name":"Cube.056",
			"primitives":[
				{
					"attributes":{
						"POSITION":145,
						"NORMAL":146,
						"TEXCOORD_0":147,
						"TEXCOORD_1":148
					},
					"indices":4,
					"material":0
				}
			]
		},
		{
			"name":"Cube.058",
			"primitives":[
				{
					"attributes":{
						"POSITION":149,
						"NORMAL":150,
						"TEXCOORD_0":151,
						"TEXCOORD_1":152
					},
					"indices":4,
					"material":0
				}
			]
		},
		{
			"name":"Cube.059",
			"primitives":[
				{
					"attributes":{
						"POSITION":153,
						"NORMAL":154,
						"TEXCOORD_0":155,
						"TEXCOORD_1":156
					},
					"indices":4,
					"material":0
				}
			]
		},
		{
			"name":"Cube.060",
			"primitives":[
				{
					"attributes":{
						"POSITION":157,
						"NORMAL":158,
						"TEXCOORD_0":159,
						"TEXCOORD_1":160
					},
					"indices":4,
					"material":0
				}
			]
		},
		{
			"name":"Cube.061",
			"primitives":[
				{
					"attributes":{
						"POSITION":161,
						"NORMAL":162,
						"TEXCOORD_0":163,
						"TEXCOORD_1":164
					},
					"indices":4,
					"material":0
				}
			]
		},
		{
			"name":"Cube.062",
			"primitives":[
				{
					"attributes":{
						"POSITION":165,
						"NORMAL":166,
						"TEXCOORD_0":167,
						"TEXCOORD_1":168
					},
					"indices":4,
					"material":0
				}
			]
		},
		{
			"name":"Cube.063",
			"primitives":[
				{
					"attributes":{
						"POSITION":169,
						"NORMAL":170,
						"TEXCOORD_0":171,
						"TEXCOORD_1":172
					},
					"indices":4,
					"material":0
				}
			]
		},
		{
			"name":"Cube.064",
			"primitives":[
				{
					"attributes":{
						"POSITION":173,
						"NORMAL":174,
						"TEXCOORD_0":175,
						"TEXCOORD_1":176
					},
					"indices":4,
					"material":0
				}
			]
		}
	],
	"textures":[
		{
			"sampler":0,
			"source":0
		},
		{
			"sampler":0,
			"source":1
		},
		{
			"sampler":0,
			"source":2
		}
	],
	"images":[
		{
			"mimeType":"image/jpeg",
			"name":"brick-43_normal",
			"uri":"brick-43_normal.jpg"
		},
		{
			"mimeType":"image/jpeg",
			"name":"brick-43",
			"uri":"brick-43.jpg"
		},
		{
			"mimeType":"image/png",
			"name":"brick-43",
			"uri":"brick-43.png"
		}
	],
	"accessors":[
		{
			"bufferView":0,
			"componentType":5126,
			"count":24,
			"max":[
				13,
				6,
				2
			],
			"min":[
				11,
				0,
				-8
			],
			"type":"VEC3"
		},
		{
			"bufferView":1,
			"componentType":5126,
			"count":24,
			"type":"VEC3"
		},
		{
			"bufferView":2,
			"componentType":5126,
			"count":24,
			"type":"VEC2"
		},
		{
			"bufferView":3,
			"componentType":5126,
			"count":24,
			"type":"VEC2"
		},
		{
			"bufferView":4,
			"componentType":5123,
			"count":36,
			"type":"SCALAR"
		},
		{
			"bufferView":5,
			"componentType":5126,
			"count":24,
			"max":[
				19,
				6,
				-8
			],
			"min":[
				11,
				0,
				-10
			],
			"type":"VEC3"
		},
		{
			"bufferView":6,
			"componentType":5126,
			"count":24,
			"type":"VEC3"
		},
		{
			"bufferView":7,
			"componentType":5126,
			"count":24,
			"type":"VEC2"
		},
		{
			"bufferView":8,
			"componentType":5126,
			"count":24,
			"type":"VEC2"
		},
		{
			"bufferView":9,
			"componentType":5126,
			"count":24,
			"max":[
				25,
				6,
				-8
			],
			"min":[
				23,
				0,
				-16
			],
			"type":"VEC3"
		},
		{
			"bufferView":10,
			"componentType":5126,
			"count":24,
			"type":"VEC3"
		},
		{
			"bufferView":11,
			"componentType":5126,
			"count":24,
			"type":"VEC2"
		},
		{
			"bufferView":12,
			"componentType":5126,
			"count":24,
			"type":"VEC2"
		},
		{
			"bufferView":13,
			"componentType":5126,
			"count":24,
			"max":[
				7,
				6,
				-2
			],
			"min":[
				5,
				0,
				-10
			],
			"type":"VEC3"
		},
		{
			"bufferView":14,
			"componentType":5126,
			"count":24,
			"type":"VEC3"
		},
		{
			"bufferView":15,
			"componentType":5126,
			"count":24,
			"type":"VEC2"
		},
		{
			"bufferView":16,
			"componentType":5126,
			"count":24,
			"type":"VEC2"
		},
		{
			"bufferView":17,
			"componentType":5126,
			"count":24,
			"max":[
				19,
				6,
				-14
			],
			"min":[
				13,
				0,
				-16
			],
			"type":"VEC3"
		},
		{
			"bufferView":18,
			"componentType":5126,
			"count":24,
			"type":"VEC3"
		},
		{
			"bufferView":19,
			"componentType":5126,
			"count":24,
			"type":"VEC2"
		},
		{
			"bufferView":20,
			"componentType":5126,
			"count":24,
			"type":"VEC2"
		},
		{
			"bufferView":21,
			"componentType":5126,
			"count":24,
			"max":[
				25,
				6,
				-2
			],
			"min":[
				23,
				0,
				-8
			],
			"type":"VEC3"
		},
		{
			"bufferView":22,
			"componentType":5126,
			"count":24,
			"type":"VEC3"
		},
		{
			"bufferView":23,
			"componentType":5126,
			"count":24,
			"type":"VEC2"
		},
		{
			"bufferView":24,
			"componentType":5126,
			"count":24,
			"type":"VEC2"
		},
		{
			"bufferView":25,
			"componentType":5126,
			"count":24,
			"max":[
				23,
				6,
				-2
			],
			"min":[
				17,
				0,
				-4
			],
			"type":"VEC3"
		},
		{
			"bufferView":26,
			"componentType":5126,
			"count":24,
			"type":"VEC3"
		},
		{
			"bufferView":27,
			"componentType":5126,
			"count":24,
			"type":"VEC2"
		},
		{
			"bufferView":28,
			"componentType":5126,
			"count":24,
			"type":"VEC2"
		},
		{
			"bufferView":29,
			"componentType":5126,
			"count":24,
			"max":[
				25,
				6,
				4
			],
			"min":[
				17,
				0,
				2
			],
			"type":"VEC3"
		},
		{
			"bufferView":30,
			"componentType":5126,
			"count":24,
			"type":"VEC3"
		},
		{
			"bufferView":31,
			"componentType":5126,
			"count":24,
			"type":"VEC2"
		},
		{
			"bufferView":32,
			"componentType":5126,
			"count":24,
			"type":"VEC2"
		},
		{
			"bufferView":33,
			"componentType":5126,
			"count":24,
			"max":[
				13,
				6,
				4
			],
			"min":[
				5,
				0,
				2
			],
			"type":"VEC3"
		},
		{
			"bufferView":34,
			"componentType":5126,
			"count":24,
			"type":"VEC3"
		},
		{
			"bufferView":35,
			"componentType":5126,
			"count":24,
			"type":"VEC2"
		},
		{
			"bufferView":36,
			"componentType":5126,
			"count":24,
			"type":"VEC2"
		},
		{
			"bufferView":37,
			"componentType":5126,
			"count":24,
			"max":[
				25,
				6,
				10
			],
			"min":[
				5,
				0,
				8
			],
			"type":"VEC3"
		},
		{
			"bufferView":38,
			"componentType":5126,
			"count":24,
			"type":"VEC3"
		},
		{
			"bufferView":39,
			"componentType":5126,
			"count":24,
			"type":"VEC2"
		},
		{
			"bufferView":40,
			"componentType":5126,
			"count":24,
			"type":"VEC2"
		},
		{
			"bufferView":41,
			"componentType":5126,
			"count":24,
			"max":[
				1,
				6,
				10
			],
			"min":[
				-1,
				0,
				2
			],
			"type":"VEC3"
		},
		{
			"bufferView":42,
			"componentType":5126,
			"count":24,
			"type":"VEC3"
		},
		{
			"bufferView":43,
			"componentType":5126,
			"count":24,
			"type":"VEC2"
		},
		{
			"bufferView":44,
			"componentType":5126,
			"count":24,
			"type":"VEC2"
		},
		{
			"bufferView":45,
			"componentType":5126,
			"count":24,
			"max":[
				7,
				6,
				16
			],
			"min":[
				-1,
				0,
				14
			],
			"type":"VEC3"
		},
		{
			"bufferView":46,
			"componentType":5126,
			"count":24,
			"type":"VEC3"
		},
		{
			"bufferView":47,
			"componentType":5126,
			"count":24,
			"type":"VEC2"
		},
		{
			"bufferView":48,
			"componentType":5126,
			"count":24,
			"type":"VEC2"
		},
		{
			"bufferView":49,
			"componentType":5126,
			"count":24,
			"max":[
				7,
				6,
				14
			],
			"min":[
				5,
				0,
				10
			],
			"type":"VEC3"
		},
		{
			"bufferView":50,
			"componentType":5126,
			"count":24,
			"type":"VEC3"
		},
		{
			"bufferView":51,
			"componentType":5126,
			"count":24,
			"type":"VEC2"
		},
		{
			"bufferView":52,
			"componentType":5126,
			"count":24,
			"type":"VEC2"
		},
		{
			"bufferView":53,
			"componentType":5126,
			"count":24,
			"max":[
				-5,
				6,
				16
			],
			"min":[
				-7,
				0,
				2
			],
			"type":"VEC3"
		},
		{
			"bufferView":54,
			"componentType":5126,
			"count":24,
			"type":"VEC3"
		},
		{
			"bufferView":55,
			"componentType":5126,
			"count":24,
			"type":"VEC2"
		},
		{
			"bufferView":56,
			"componentType":5126,
			"count":24,
			"type":"VEC2"
		},
		{
			"bufferView":57,
			"componentType":5126,
			"count":24,
			"max":[
				5,
				6,
				-2
			],
			"min":[
				-7,
				0,
				-4
			],
			"type":"VEC3"
		},
		{
			"bufferView":58,
			"componentType":5126,
			"count":24,
			"type":"VEC3"
		},
		{
			"bufferView":59,
			"componentType":5126,
			"count":24,
			"type":"VEC2"
		},
		{
			"bufferView":60,
			"componentType":5126,
			"count":24,
			"type":"VEC2"
		},
		{
			"bufferView":61,
			"componentType":5126,
			"count":24,
			"max":[
				-11,
				6,
				2
			],
			"min":[
				-13,
				0,
				-4
			],
			"type":"VEC3"
		},
		{
			"bufferView":62,
			"componentType":5126,
			"count":24,
			"type":"VEC3"
		},
		{
			"bufferView":63,
			"componentType":5126,
			"count":24,
			"type":"VEC2"
		},
		{
			"bufferView":64,
			"componentType":5126,
			"count":24,
			"type":"VEC2"
		},
		{
			"bufferView":65,
			"componentType":5126,
			"count":24,
			"max":[
				1,
				6,
				-8
			],
			"min":[
				-17,
				0,
				-10
			],
			"type":"VEC3"
		},
		{
			"bufferView":66,
			"componentType":5126,
			"count":24,
			"type":"VEC3"
		},
		{
			"bufferView":67,
			"componentType":5126,
			"count":24,
			"type":"VEC2"
		},
		{
			"bufferView":68,
			"componentType":5126,
			"count":24,
			"type":"VEC2"
		},
		{
			"bufferView":69,
			"componentType":5126,
			"count":24,
			"max":[
				-7,
				6,
				4
			],
			"min":[
				-19,
				0,
				2
			],
			"type":"VEC3"
		},
		{
			"bufferView":70,
			"componentType":5126,
			"count":24,
			"type":"VEC3"
		},
		{
			"bufferView":71,
			"componentType":5126,
			"count":24,
			"type":"VEC2"
		},
		{
			"bufferView":72,
			"componentType":5126,
			"count":24,
			"type":"VEC2"
		},
		{
			"bufferView":73,
			"componentType":5126,
			"count":24,
			"max":[
				-11,
				6,
				10
			],
			"min":[
				-25,
				0,
				8
			],
			"type":"VEC3"
		},
		{
			"bufferView":74,
			"componentType":5126,
			"count":24,
			"type":"VEC3"
		},
		{
			"bufferView":75,
			"componentType":5126,
			"count":24,
			"type":"VEC2"
		},
		{
			"bufferView":76,
			"componentType":5126,
			"count":24,
			"type":"VEC2"
		},
		{
			"bufferView":77,
			"componentType":5126,
			"count":24,
			"max":[
				-11,
				6,
				16
			],
			"min":[
				-13,
				0,
				10
			],
			"type":"VEC3"
		},
		{
			"bufferView":78,
			"componentType":5126,
			"count":24,
			"type":"VEC3"
		},
		{
			"bufferView":79,
			"componentType":5126,
			"count":24,
			"type":"VEC2"
		},
		{
			"bufferView":80,
			"componentType":5126,
			"count":24,
			"type":"VEC2"
		},
		{
			"bufferView":81,
			"componentType":5126,
			"count":24,
			"max":[
				-13,
				6,
				16
			],
			"min":[
				-25,
				0,
				14
			],
			"type":"VEC3"
		},
		{
			"bufferView":82,
			"componentType":5126,
			"count":24,
			"type":"VEC3"
		},
		{
			"bufferView":83,
			"componentType":5126,
			"count":24,
			"type":"VEC2"
		},
		{
			"bufferView":84,
			"componentType":5126,
			"count":24,
			"type":"VEC2"
		},
		{
			"bufferView":85,
			"componentType":5126,
			"count":24,
			"max":[
				-23,
				6,
				14
			],
			"min":[
				-25,
				0,
				10
			],
			"type":"VEC3"
		},
		{
			"bufferView":86,
			"componentType":5126,
			"count":24,
			"type":"VEC3"
		},
		{
			"bufferView":87,
			"componentType":5126,
			"count":24,
			"type":"VEC2"
		},
		{
			"bufferView":88,
			"componentType":5126,
			"count":24,
			"type":"VEC2"
		},
		{
			"bufferView":89,
			"componentType":5126,
			"count":24,
			"max":[
				-5,
				6,
				22
			],
			"min":[
				-25,
				0,
				20
			],
			"type":"VEC3"
		},
		{
			"bufferView":90,
			"componentType":5126,
			"count":24,
			"type":"VEC3"
		},
		{
			"bufferView":91,
			"componentType":5126,
			"count":24,
			"type":"VEC2"
		},
		{
			"bufferView":92,
			"componentType":5126,
			"count":24,
			"type":"VEC2"
		},
		{
			"bufferView":93,
			"componentType":5126,
			"count":24,
			"max":[
				13,
				6,
				16
			],
			"min":[
				7,
				0,
				14
			],
			"type":"VEC3"
		},
		{
			"bufferView":94,
			"componentType":5126,
			"count":24,
			"type":"VEC3"
		},
		{
			"bufferView":95,
			"componentType":5126,
			"count":24,
			"type":"VEC2"
		},
		{
			"bufferView":96,
			"componentType":5126,
			"count":24,
			"type":"VEC2"
		},
		{
			"bufferView":97,
			"componentType":5126,
			"count":24,
			"max":[
				13,
				6,
				14
			],
			"min":[
				11,
				0,
				10
			],
			"type":"VEC3"
		},
		{
			"bufferView":98,
			"componentType":5126,
			"count":24,
			"type":"VEC3"
		},
		{
			"bufferView":99,
			"componentType":5126,
			"count":24,
			"type":"VEC2"
		},
		{
			"bufferView":100,
			"componentType":5126,
			"count":24,
			"type":"VEC2"
		},
		{
			"bufferView":101,
			"componentType":5126,
			"count":24,
			"max":[
				13,
				6,
				22
			],
			"min":[
				-1,
				0,
				20
			],
			"type":"VEC3"
		},
		{
			"bufferView":102,
			"componentType":5126,
			"count":24,
			"type":"VEC3"
		},
		{
			"bufferView":103,
			"componentType":5126,
			"count":24,
			"type":"VEC2"
		},
		{
			"bufferView":104,
			"componentType":5126,
			"count":24,
			"type":"VEC2"
		},
		{
			"bufferView":105,
			"componentType":5126,
			"count":24,
			"max":[
				19,
				6,
				22
			],
			"min":[
				17,
				0,
				14
			],
			"type":"VEC3"
		},
		{
			"bufferView":106,
			"componentType":5126,
			"count":24,
			"type":"VEC3"
		},
		{
			"bufferView":107,
			"componentType":5126,
			"count":24,
			"type":"VEC2"
		},
		{
			"bufferView":108,
			"componentType":5126,
			"count":24,
			"type":"VEC2"
		},
		{
			"bufferView":109,
			"componentType":5126,
			"count":24,
			"max":[
				25,
				6,
				16
			],
			"min":[
				19,
				0,
				14
			],
			"type":"VEC3"
		},
		{
			"bufferView":110,
			"componentType":5126,
			"count":24,
			"type":"VEC3"
		},
		{
			"bufferView":111,
			"componentType":5126,
			"count":24,
			"type":"VEC2"
		},
		{
			"bufferView":112,
			"componentType":5126,
			"count":24,
			"type":"VEC2"
		},
		{
			"bufferView":113,
			"componentType":5126,
			"count":24,
			"max":[
				29,
				6,
				28
			],
			"min":[
				-31,
				0,
				26
			],
			"type":"VEC3"
		},
		{
			"bufferView":114,
			"componentType":5126,
			"count":24,
			"type":"VEC3"
		},
		{
			"bufferView":115,
			"componentType":5126,
			"count":24,
			"type":"VEC2"
		},
		{
			"bufferView":116,
			"componentType":5126,
			"count":24,
			"type":"VEC2"
		},
		{
			"bufferView":117,
			"componentType":5126,
			"count":24,
			"max":[
				7,
				6,
				-10
			],
			"min":[
				5,
				0,
				-22
			],
			"type":"VEC3"
		},
		{
			"bufferView":118,
			"componentType":5126,
			"count":24,
			"type":"VEC3"
		},
		{
			"bufferView":119,
			"componentType":5126,
			"count":24,
			"type":"VEC2"
		},
		{
			"bufferView":120,
			"componentType":5126,
			"count":24,
			"type":"VEC2"
		},
		{
			"bufferView":121,
			"componentType":5126,
			"count":24,
			"max":[
				19,
				6,
				-16
			],
			"min":[
				17,
				0,
				-20
			],
			"type":"VEC3"
		},
		{
			"bufferView":122,
			"componentType":5126,
			"count":24,
			"type":"VEC3"
		},
		{
			"bufferView":123,
			"componentType":5126,
			"count":24,
			"type":"VEC2"
		},
		{
			"bufferView":124,
			"componentType":5126,
			"count":24,
			"type":"VEC2"
		},
		{
			"bufferView":125,
			"componentType":5126,
			"count":24,
			"max":[
				25,
				6,
				22
			],
			"min":[
				19,
				0,
				20
			],
			"type":"VEC3"
		},
		{
			"bufferView":126,
			"componentType":5126,
			"count":24,
			"type":"VEC3"
		},
		{
			"bufferView":127,
			"componentType":5126,
			"count":24,
			"type":"VEC2"
		},
		{
			"bufferView":128,
			"componentType":5126,
			"count":24,
			"type":"VEC2"
		},
		{
			"bufferView":129,
			"componentType":5126,
			"count":24,
			"max":[
				1,
				6,
				-14
			],
			"min":[
				-19,
				0,
				-16
			],
			"type":"VEC3"
		},
		{
			"bufferView":130,
			"componentType":5126,
			"count":24,
			"type":"VEC3"
		},
		{
			"bufferView":131,
			"componentType":5126,
			"count":24,
			"type":"VEC2"
		},
		{
			"bufferView":132,
			"componentType":5126,
			"count":24,
			"type":"VEC2"
		},
		{
			"bufferView":133,
			"componentType":5126,
			"count":24,
			"max":[
				31,
				6,
				28
			],
			"min":[
				29,
				0,
				-26
			],
			"type":"VEC3"
		},
		{
			"bufferView":134,
			"componentType":5126,
			"count":24,
			"type":"VEC3"
		},
		{
			"bufferView":135,
			"componentType":5126,
			"count":24,
			"type":"VEC2"
		},
		{
			"bufferView":136,
			"componentType":5126,
			"count":24,
			"type":"VEC2"
		},
		{
			"bufferView":137,
			"componentType":5126,
			"count":24,
			"max":[
				25,
				6,
				20
			],
			"min":[
				23,
				0,
				16
			],
			"type":"VEC3"
		},
		{
			"bufferView":138,
			"componentType":5126,
			"count":24,
			"type":"VEC3"
		},
		{
			"bufferView":139,
			"componentType":5126,
			"count":24,
			"type":"VEC2"
		},
		{
			"bufferView":140,
			"componentType":5126,
			"count":24,
			"type":"VEC2"
		},
		{
			"bufferView":141,
			"componentType":5126,
			"count":24,
			"max":[
				19,
				6,
				-20
			],
			"min":[
				13,
				0,
				-22
			],
			"type":"VEC3"
		},
		{
			"bufferView":142,
			"componentType":5126,
			"count":24,
			"type":"VEC3"
		},
		{
			"bufferView":143,
			"componentType":5126,
			"count":24,
			"type":"VEC2"
		},
		{
			"bufferView":144,
			"componentType":5126,
			"count":24,
			"type":"VEC2"
		},
		{
			"bufferView":145,
			"componentType":5126,
			"count":24,
			"max":[
				13,
				6,
				-14
			],
			"min":[
				11,
				0,
				-22
			],
			"type":"VEC3"
		},
		{
			"bufferView":146,
			"componentType":5126,
			"count":24,
			"type":"VEC3"
		},
		{
			"bufferView":147,
			"componentType":5126,
			"count":24,
			"type":"VEC2"
		},
		{
			"bufferView":148,
			"componentType":5126,
			"count":24,
			"type":"VEC2"
		},
		{
			"bufferView":149,
			"componentType":5126,
			"count":24,
			"max":[
				1,
				6,
				-20
			],
			"min":[
				-25,
				0,
				-22
			],
			"type":"VEC3"
		},
		{
			"bufferView":150,
			"componentType":5126,
			"count":24,
			"type":"VEC3"
		},
		{
			"bufferView":151,
			"componentType":5126,
			"count":24,
			"type":"VEC2"
		},
		{
			"bufferView":152,
			"componentType":5126,
			"count":24,
			"type":"VEC2"
		},
		{
			"bufferView":153,
			"componentType":5126,
			"count":24,
			"max":[
				-23,
				6,
				4
			],
			"min":[
				-25,
				0,
				-16
			],
			"type":"VEC3"
		},
		{
			"bufferView":154,
			"componentType":5126,
			"count":24,
			"type":"VEC3"
		},
		{
			"bufferView":155,
			"componentType":5126,
			"count":24,
			"type":"VEC2"
		},
		{
			"bufferView":156,
			"componentType":5126,
			"count":24,
			"type":"VEC2"
		},
		{
			"bufferView":157,
			"componentType":5126,
			"count":24,
			"max":[
				-17,
				6,
				-2
			],
			"min":[
				-19,
				0,
				-10
			],
			"type":"VEC3"
		},
		{
			"bufferView":158,
			"componentType":5126,
			"count":24,
			"type":"VEC3"
		},
		{
			"bufferView":159,
			"componentType":5126,
			"count":24,
			"type":"VEC2"
		},
		{
			"bufferView":160,
			"componentType":5126,
			"count":24,
			"type":"VEC2"
		},
		{
			"bufferView":161,
			"componentType":5126,
			"count":24,
			"max":[
				31,
				6,
				-26
			],
			"min":[
				29,
				0,
				-28
			],
			"type":"VEC3"
		},
		{
			"bufferView":162,
			"componentType":5126,
			"count":24,
			"type":"VEC3"
		},
		{
			"bufferView":163,
			"componentType":5126,
			"count":24,
			"type":"VEC2"
		},
		{
			"bufferView":164,
			"componentType":5126,
			"count":24,
			"type":"VEC2"
		},
		{
			"bufferView":165,
			"componentType":5126,
			"count":24,
			"max":[
				-29,
				6,
				26
			],
			"min":[
				-31,
				0,
				-28
			],
			"type":"VEC3"
		},
		{
			"bufferView":166,
			"componentType":5126,
			"count":24,
			"type":"VEC3"
		},
		{
			"bufferView":167,
			"componentType":5126,
			"count":24,
			"type":"VEC2"
		},
		{
			"bufferView":168,
			"componentType":5126,
			"count":24,
			"type":"VEC2"
		},
		{
			"bufferView":169,
			"componentType":5126,
			"count":24,
			"max":[
				25,
				6,
				-26
			],
			"min":[
				-29,
				0,
				-28
			],
			"type":"VEC3"
		},
		{
			"bufferView":170,
			"componentType":5126,
			"count":24,
			"type":"VEC3"
		},
		{
			"bufferView":171,
			"componentType":5126,
			"count":24,
			"type":"VEC2"
		},
		{
			"bufferView":172,
			"componentType":5126,
			"count":24,
			"type":"VEC2"
		},
		{
			"bufferView":173,
			"componentType":5126,
			"count":24,
			"max":[
				25,
				6,
				-16
			],
			"min":[
				23,
				0,
				-22
			],
			"type":"VEC3"
		},
		{
			"bufferView":174,
			"componentType":5126,
			"count":24,
			"type":"VEC3"
		},
		{
			"bufferView":175,
			"componentType":5126,
			"count":24,
			"type":"VEC2"
		},
		{
			"bufferView":176,
			"componentType":5126,
			"count":24,
			"type":"VEC2"
		}
	],
	"bufferViews":[
		{
			"buffer":0,
			"byteLength":288,
			"byteOffset":0,
			"target":34962
		},
		{
			"buffer":0,
			"byteLength":288,
			"byteOffset":288,
			"target":34962
		},
		{
			"buffer":0,
			"byteLength":192,
			"byteOffset":576,
			"target":34962
		},
		{
			"buffer":0,
			"byteLength":192,
			"byteOffset":768,
			"target":34962
		},
		{
			"buffer":0,
			"byteLength":72,
			"byteOffset":960,
			"target":34963
		},
		{
			"buffer":0,
			"byteLength":288,
			"byteOffset":1032,
			"target":34962
		},
		{
			"buffer":0,
			"byteLength":288,
			"byteOffset":1320,
			"target":34962
		},
		{
			"buffer":0,
			"byteLength":192,
			"byteOffset":1608,
			"target":34962
		},
		{
			"buffer":0,
			"byteLength":192,
			"byteOffset":1800,
			"target":34962
		},
		{
			"buffer":0,
			"byteLength":288,
			"byteOffset":1992,
			"target":34962
		},
		{
			"buffer":0,
			"byteLength":288,
			"byteOffset":2280,
			"target":34962
		},
		{
			"buffer":0,
			"byteLength":192,
			"byteOffset":2568,
			"target":34962
		},
		{
			"buffer":0,
			"byteLength":192,
			"byteOffset":2760,
			"target":34962
		},
		{
			"buffer":0,
			"byteLength":288,
			"byteOffset":2952,
			"target":34962
		},
		{
			"buffer":0,
			"byteLength":288,
			"byteOffset":3240,
			"target":34962
		},
		{
			"buffer":0,
			"byteLength":192,
			"byteOffset":3528,
			"target":34962
		},
		{
			"buffer":0,
			"byteLength":192,
			"byteOffset":3720,
			"target":34962
		},
		{
			"buffer":0,
			"byteLength":288,
			"byteOffset":3912,
			"target":34962
		},
		{
			"buffer":0,
			"byteLength":288,
			"byteOffset":4200,
			"target":34962
		},
		{
			"buffer":0,
			"byteLength":192,
			"byteOffset":4488,
			"target":34962
		},
		{
			"buffer":0,
			"byteLength":192,
			"byteOffset":4680,
			"target":34962
		},
		{
			"buffer":0,
			"byteLength":288,
			"byteOffset":4872,
			"target":34962
		},
		{
			"buffer":0,
			"byteLength":288,
			"byteOffset":5160,
			"target":34962
		},
		{
			"buffer":0,
			"byteLength":192,
			"byteOffset":5448,
			"target":34962
		},
		{
			"buffer":0,
			"byteLength":192,
			"byteOffset":5640,
			"target":34962
		},
		{
			"buffer":0,
			"byteLength":288,
			"byteOffset":5832,
			"target":34962
		},
		{
			"buffer":0,
			"byteLength":288,
			"byteOffset":6120,
			"target":34962
		},
		{
			"buffer":0,
			"byteLength":192,
			"byteOffset":6408,
			"target":34962
		},
		{
			"buffer":0,
			"byteLength":192,
			"byteOffset":6600,
			"target":34962
		},
		{
			"buffer":0,
			"byteLength":288,
			"byteOffset":6792,
			"target":34962
		},
		{
			"buffer":0,
			"byteLength":288,
			"byteOffset":7080,
			"target":34962
		},
		{
			"buffer":0,
			"byteLength":192,
			"byteOffset":7368,
			"target":34962
		},
		{
			"buffer":0,
			"byteLength":192,
			"byteOffset":7560,
			"target":34962
		},
		{
			"buffer":0,
			"byteLength":288,
			"byteOffset":7752,
			"target":34962
		},
		{
			"buffer":0,
			"byteLength":288,
			"byteOffset":8040,
			"target":34962
		},
		{
			"buffer":0,
			"byteLength":192,
			"byteOffset":8328,
			"target":34962
		},
		{
			"buffer":0,
			"byteLength":192,
			"byteOffset":8520,
			"target":34962
		},
		{
			"buffer":0,
			"byteLength":288,
			"byteOffset":8712,
			"target":34962
		},
		{
			"buffer":0,
			"byteLength":288,
			"byteOffset":9000,
			"target":34962
		},
		{
			"buffer":0,
			"byteLength":192,
			"byteOffset":9288,
			"target":34962
		},
		{
			"buffer":0,
			"byteLength":192,
			"byteOffset":9480,
			"target":34962
		},
		{
			"buffer":0,
			"byteLength":288,
			"byteOffset":9672,
			"target":34962
		},
		{
			"buffer":0,
			"byteLength":288,
			"byteOffset":9960,
			"target":34962
		},
		{
			"buffer":0,
			"byteLength":192,
			"byteOffset":10248,
			"target":34962
		},
		{
			"buffer":0,
			"byteLength":192,
			"byteOffset":10440,
			"target":34962
		},
		{
			"buffer":0,
			"byteLength":288,
			"byteOffset":10632,
			"target":34962
		},
		{
			"buffer":0,
			"byteLength":288,
			"byteOffset":10920,
			"target":34962
		},
		{
			"buffer":0,
			"byteLength":192,
			"byteOffset":11208,
			"target":34962
		},
		{
			"buffer":0,
			"byteLength":192,
			"byteOffset":11400,
			"target":34962
		},
		{
			"buffer":0,
			"byteLength":288,
			"byteOffset":11592,
			"target":34962
		},
		{
			"buffer":0,
			"byteLength":288,
			"byteOffset":11880,
			"target":34962
		},
		{
			"buffer":0,
			"byteLength":192,
			"byteOffset":12168,
			"target":34962
		},
		{
			"buffer":0,
			"byteLength":192,
			"byteOffset":12360,
			"target":34962
		},
		{
			"buffer":0,
			"byteLength":288,
			"byteOffset":12552,
			"target":34962
		},
		{
			"buffer":0,
			"byteLength":288,
			"byteOffset":12840,
			"target":34962
		},
		{
			"buffer":0,
			"byteLength":192,
			"byteOffset":13128,
			"target":34962
		},
		{
			"buffer":0,
			"byteLength":192,
			"byteOffset":13320,
			"target":34962
		},
		{
			"buffer":0,
			"byteLength":288,
			"byteOffset":13512,
			"target":34962
		},
		{
			"buffer":0,
			"byteLength":288,
			"byteOffset":13800,
			"target":34962
		},
		{
			"buffer":0,
			"byteLength":192,
			"byteOffset":14088,
			"target":34962
		},
		{
			"buffer":0,
			"byteLength":192,
			"byteOffset":14280,
			"target":34962
		},
		{
			"buffer":0,
			"byteLength":288,
			"byteOffset":14472,
			"target":34962
		},
		{
			"buffer":0,
			"byteLength":288,
			"byteOffset":14760,
			"target":34962
		},
		{
			"buffer":0,
			"byteLength":192,
			"byteOffset":15048,
			"target":34962
		},
		{
			"buffer":0,
			"byteLength":192,
			"byteOffset":15240,
			"target":34962
		},
		{
			"buffer":0,
			"byteLength":288,
			"byteOffset":15432,
			"target":34962
		},
		{
			"buffer":0,
			"byteLength":288,
			"byteOffset":15720,
			"target":34962
		},
		{
			"buffer":0,
			"byteLength":192,
			"byteOffset":16008,
			"target":34962
		},
		{
			"buffer":0,
			"byteLength":192,
			"byteOffset":16200,
			"target":34962
		},
		{
			"buffer":0,
			"byteLength":288,
			"byteOffset":16392,
			"target":34962
		},
		{
			"buffer":0,
			"byteLength":288,
			"byteOffset":16680,
			"target":34962
		},
		{
			"buffer":0,
			"byteLength":192,
			"byteOffset":16968,
			"target":34962
		},
		{
			"buffer":0,
			"byteLength":192,
			"byteOffset":17160,
			"target":34962
		},
		{
			"buffer":0,
			"byteLength":288,
			"byteOffset":17352,
			"target":34962
		},
		{
			"buffer":0,
			"byteLength":288,
			"byteOffset":17640,
			"target":34962
		},
		{
			"buffer":0,
			"byteLength":192,
			"byteOffset":17928,
			"target":34962
		},
		{
			"buffer":0,
			"byteLength":192,
			"byteOffset":18120,
			"target":34962
		},
		{
			"buffer":0,
			"byteLength":288,
			"byteOffset":18312,
			"target":34962
		},
		{
			"buffer":0,
			"byteLength":288,
			"byteOffset":18600,
			"target":34962
		},
		{
			"buffer":0,
			"byteLength":192,
			"byteOffset":18888,
			"target":34962
		},
		{
			"buffer":0,
			"byteLength":192,
			"byteOffset":19080,
			"target":34962
		},
		{
			"buffer":0,
			"byteLength":288,
			"byteOffset":19272,
			"target":34962
		},
		{
			"buffer":0,
			"byteLength":288,
			"byteOffset":19560,
			"target":34962
		},
		{
			"buffer":0,
			"byteLength":192,
			"byteOffset":19848,
			"target":34962
		},
		{
			"buffer":0,
			"byteLength":192,
			"byteOffset":20040,
			"target":34962
		},
		{
			"buffer":0,
			"byteLength":288,
			"byteOffset":20232,
			"target":34962
		},
		{
			"buffer":0,
			"byteLength":288,
			"byteOffset":20520,
			"target":34962
		},
		{
			"buffer":0,
			"byteLength":192,
			"byteOffset":20808,
			"target":34962
		},
		{
			"buffer":0,
			"byteLength":192,
			"byteOffset":21000,
			"target":34962
		},
		{
			"buffer":0,
			"byteLength":288,
			"byteOffset":21192,
			"target":34962
		},
		{
			"buffer":0,
			"byteLength":288,
			"byteOffset":21480,
			"target":34962
		},
		{
			"buffer":0,
			"byteLength":192,
			"byteOffset":21768,
			"target":34962
		},
		{
			"buffer":0,
			"byteLength":192,
			"byteOffset":21960,
			"target":34962
		},
		{
			"buffer":0,
			"byteLength":288,
			"byteOffset":22152,
			"target":34962
		},
		{
			"buffer":0,
			"byteLength":288,
			"byteOffset":22440,
			"target":34962
		},
		{
			"buffer":0,
			"byteLength":192,
			"byteOffset":22728,
			"target":34962
		},
		{
			"buffer":0,
			"byteLength":192,
			"byteOffset":22920,
			"target":34962
		},
		{
			"buffer":0,
			"byteLength":288,
			"byteOffset":23112,
			"target":34962
		},
		{
			"buffer":0,
			"byteLength":288,
			"byteOffset":23400,
			"target":34962
		},
		{
			"buffer":0,
			"byteLength":192,
			"byteOffset":23688,
			"target":34962
		},
		{
			"buffer":0,
			"byteLength":192,
			"byteOffset":23880,
			"target":34962
		},
		{
			"buffer":0,
			"byteLength":288,
			"byteOffset":24072,
			"target":34962
		},
		{
			"buffer":0,
			"byteLength":288,
			"byteOffset":24360,
			"target":34962
		},
		{
			"buffer":0,
			"byteLength":192,
			"byteOffset":24648,
			"target":34962
		},
		{
			"buffer":0,
			"byteLength":192,
			"byteOffset":24840,
			"target":34962
		},
		{
			"buffer":0,
			"byteLength":288,
			"byteOffset":25032,
			"target":34962
		},
		{
			"buffer":0,
			"byteLength":288,
			"byteOffset":25320,
			"target":34962
		},
		{
			"buffer":0,
			"byteLength":192,
			"byteOffset":25608,
			"target":34962
		},
		{
			"buffer":0,
			"byteLength":192,
			"byteOffset":25800,
			"target":34962
		},
		{
			"buffer":0,
			"byteLength":288,
			"byteOffset":25992,
			"target":34962
		},
		{
			"buffer":0,
			"byteLength":288,
			"byteOffset":26280,
			"target":34962
		},
		{
			"buffer":0,
			"byteLength":192,
			"byteOffset":26568,
			"target":34962
		},
		{
			"buffer":0,
			"byteLength":192,
			"byteOffset":26760,
			"target":34962
		},
		{
			"buffer":0,
			"byteLength":288,
			"byteOffset":26952,
			"target":34962
		},
		{
			"buffer":0,
			"byteLength":288,
			"byteOffset":27240,
			"target":34962
		},
		{
			"buffer":0,
			"byteLength":192,
			"byteOffset":27528,
			"target":34962
		},
		{
			"buffer":0,
			"byteLength":192,
			"byteOffset":27720,
			"target":34962
		},
		{
			"buffer":0,
			"byteLength":288,
			"byteOffset":27912,
			"target":34962
		},
		{
			"buffer":0,
			"byteLength":288,
			"byteOffset":28200,
			"target":34962
		},
		{
			"buffer":0,
			"byteLength":192,
			"byteOffset":28488,
			"target":34962
		},
		{
			"buffer":0,
			"byteLength":192,
			"byteOffset":28680,
			"target":34962
		},
		{
			"buffer":0,
			"byteLength":288,
			"byteOffset":28872,
			"target":34962
		},
		{
			"buffer":0,
			"byteLength":288,
			"byteOffset":29160,
			"target":34962
		},
		{
			"buffer":0,
			"byteLength":192,
			"byteOffset":29448,
			"target":34962
		},
		{
			"buffer":0,
			"byteLength":192,
			"byteOffset":29640,
			"target":34962
		},
		{
			"buffer":0,
			"byteLength":288,
			"byteOffset":29832,
			"target":34962
		},
		{
			"buffer":0,
			"byteLength":288,
			"byteOffset":30120,
			"target":34962
		},
		{
			"buffer":0,
			"byteLength":192,
			"byteOffset":30408,
			"target":34962
		},
		{
			"buffer":0,
			"byteLength":192,
			"byteOffset":30600,
			"target":34962
		},
		{
			"buffer":0,
			"byteLength":288,
			"byteOffset":30792,
			"target":34962
		},
		{
			"buffer":0,
			"byteLength":288,
			"byteOffset":31080,
			"target":34962
		},
		{
			"buffer":0,
			"byteLength":192,
			"byteOffset":31368,
			"target":34962
		},
		{
			"buffer":0,
			"byteLength":192,
			"byteOffset":31560,
			"target":34962
		},
		{
			"buffer":0,
			"byteLength":288,
			"byteOffset":31752,
			"target":34962
		},
		{
			"buffer":0,
			"byteLength":288,
			"byteOffset":32040,
			"target":34962
		},
		{
			"buffer":0,
			"byteLength":192,
			"byteOffset":32328,
			"target":34962
		},
		{
			"buffer":0,
			"byteLength":192,
			"byteOffset":32520,
			"target":34962
		},
		{
			"buffer":0,
			"byteLength":288,
			"byteOffset":32712,
			"target":34962
		},
		{
			"buffer":0,
			"byteLength":288,
			"byteOffset":33000,
			"target":34962
		},
		{
			"buffer":0,
			"byteLength":192,
			"byteOffset":33288,
			"target":34962
		},
		{
			"buffer":0,
			"byteLength":192,
			"byteOffset":33480,
			"target":34962
		},
		{
			"buffer":0,
			"byteLength":288,
			"byteOffset":33672,
			"target":34962
		},
		{
			"buffer":0,
			"byteLength":288,
			"byteOffset":33960,
			"target":34962
		},
		{
			"buffer":0,
			"byteLength":192,
			"byteOffset":34248,
			"target":34962
		},
		{
			"buffer":0,
			"byteLength":192,
			"byteOffset":34440,
			"target":34962
		},
		{
			"buffer":0,
			"byteLength":288,
			"byteOffset":34632,
			"target":34962
		},
		{
			"buffer":0,
			"byteLength":288,
			"byteOffset":34920,
			"target":34962
		},
		{
			"buffer":0,
			"byteLength":192,
			"byteOffset":35208,
			"target":34962
		},
		{
			"buffer":0,
			"byteLength":192,
			"byteOffset":35400,
			"target":34962
		},
		{
			"buffer":0,
			"byteLength":288,
			"byteOffset":35592,
			"target":34962
		},
		{
			"buffer":0,
			"byteLength":288,
			"byteOffset":35880,
			"target":34962
		},
		{
			"buffer":0,
			"byteLength":192,
			"byteOffset":36168,
			"target":34962
		},
		{
			"buffer":0,
			"byteLength":192,
			"byteOffset":36360,
			"target":34962
		},
		{
			"buffer":0,
			"byteLength":288,
			"byteOffset":36552,
			"target":34962
		},
		{
			"buffer":0,
			"byteLength":288,
			"byteOffset":36840,
			"target":34962
		},
		{
			"buffer":0,
			"byteLength":192,
			"byteOffset":37128,
			"target":34962
		},
		{
			"buffer":0,
			"byteLength":192,
			"byteOffset":37320,
			"target":34962
		},
		{
			"buffer":0,
			"byteLength":288,
			"byteOffset":37512,
			"target":34962
		},
		{
			"buffer":0,
			"byteLength":288,
			"byteOffset":37800,
			"target":34962
		},
		{
			"buffer":0,
			"byteLength":192,
			"byteOffset":38088,
			"target":34962
		},
		{
			"buffer":0,
			"byteLength":192,
			"byteOffset":38280,
			"target":34962
		},
		{
			"buffer":0,
			"byteLength":288,
			"byteOffset":38472,
			"target":34962
		},
		{
			"buffer":0,
			"byteLength":288,
			"byteOffset":38760,
			"target":34962
		},
		{
			"buffer":0,
			"byteLength":192,
			"byteOffset":39048,
			"target":34962
		},
		{
			"buffer":0,
			"byteLength":192,
			"byteOffset":39240,
			"target":34962
		},
		{
			"buffer":0,
			"byteLength":288,
			"byteOffset":39432,
			"target":34962
		},
		{
			"buffer":0,
			"byteLength":288,
			"byteOffset":39720,
			"target":34962
		},
		{
			"buffer":0,
			"byteLength":192,
			"byteOffset":40008,
			"target":34962
		},
		{
			"buffer":0,
			"byteLength":192,
			"byteOffset":40200,
			"target":34962
		},
		{
			"buffer":0,
			"byteLength":288,
			"byteOffset":40392,
			"target":34962
		},
		{
			"buffer":0,
			"byteLength":288,
			"byteOffset":40680,
			"target":34962
		},
		{
			"buffer":0,
			"byteLength":192,
			"byteOffset":40968,
			"target":34962
		},
		{
			"buffer":0,
			"byteLength":192,
			"byteOffset":41160,
			"target":34962
		},
		{
			"buffer":0,
			"byteLength":288,
			"byteOffset":41352,
			"target":34962
		},
		{
			"buffer":0,
			"byteLength":288,
			"byteOffset":41640,
			"target":34962
		},
		{
			"buffer":0,
			"byteLength":192,
			"byteOffset":41928,
			"target":34962
		},
		{
			"buffer":0,
			"byteLength":192,
			"byteOffset":42120,
			"target":34962
		}
	],
	"samplers":[
		{
			"magFilter":9729,
			"minFilter":9987
		}
	],
	"buffers":[
		{
			"byteLength":42312,
			"uri":"stageWall.bin"
		}
	]
}
