{
	"asset":{
		"generator":"Khronos glTF Blender I/O v4.5.48",
		"version":"2.0"
	},
	"scene":0,
	"scenes":[
		{
			"name":"Scene",
			"nodes":[
				0,
				1,
				2,
				3,
				4,
				5,
				6,
				7,
				8,
				9,
				10,
				11,
				12,
				13,
				14,
				15,
				16,
				17,
				18,
				19,
				20,
				21,
				22,
				23,
				24,
				25,
				26,
				27,
				28,
				29,
				30,
				31,
				32,
				33,
				34,
				35,
				36,
				37,
				38,
				39,
				40,
				41,
				42,
				43,
				44,
				45,
				46,
				47,
				48,
				49,
				50,
				51,
				52,
				53,
				54,
				55,
				56,
				57,
				58,
				59,
				60,
				61,
				62,
				63,
				64,
				65,
				66,
				67,
				68,
				69
			]
		}
	],
	"nodes":[
		{
			"mesh":0,
			"name":"\u7403"
		},
		{
			"mesh":1,
			"name":"\u7403.001"
		},
		{
			"mesh":2,
			"name":"\u7403.002"
		},
		{
			"mesh":3,
			"name":"\u7403.003"
		},
		{
			"mesh":4,
			"name":"\u7403.005"
		},
		{
			"mesh":5,
			"name":"\u7403.006"
		},
		{
			"mesh":6,
			"name":"\u7403.007"
		},
		{
			"mesh":7,
			"name":"\u7403.008"
		},
		{
			"mesh":8,
			"name":"\u7403.011"
		},
		{
			"mesh":9,
			"name":"\u7403.012"
		},
		{
			"mesh":10,
			"name":"\u7403.013"
		},
		{
			"mesh":11,
			"name":"\u7403.014"
		},
		{
			"mesh":12,
			"name":"\u7403.016"
		},
		{
			"mesh":13,
			"name":"\u7403.018"
		},
		{
			"mesh":14,
			"name":"\u7403.019"
		},
		{
			"mesh":15,
			"name":"\u7403.020"
		},
		{
			"mesh":16,
			"name":"\u7403.021"
		},
		{
			"mesh":17,
			"name":"\u7403.022"
		},
		{
			"mesh":18,
			"name":"\u7403.023"
		},
		{
			"mesh":19,
			"name":"\u7403.024"
		},
		{
			"mesh":20,
			"name":"\u7403.025"
		},
		{
			"mesh":21,
			"name":"\u7403.026"
		},
		{
			"mesh":22,
			"name":"\u7403.027"
		},
		{
			"mesh":23,
			"name":"\u7403.028"
		},
		{
			"mesh":24,
			"name":"\u7403.029"
		},
		{
			"mesh":25,
			"name":"\u7403.030"
		},
		{
			"mesh":26,
			"name":"\u7403.035"
		},
		{
			"mesh":27,
			"name":"\u7403.036"
		},
		{
			"mesh":28,
			"name":"\u7403.037"
		},
		{
			"mesh":29,
			"name":"\u7403.040"
		},
		{
			"mesh":30,
			"name":"\u7403.041"
		},
		{
			"mesh":31,
			"name":"\u7403.042"
		},
		{
			"mesh":32,
			"name":"\u7403.043"
		},
		{
			"mesh":33,
			"name":"\u7403.044"
		},
		{
			"mesh":34,
			"name":"\u7403.045"
		},
		{
			"mesh":35,
			"name":"\u7403.046"
		},
		{
			"mesh":36,
			"name":"\u7403.047"
		},
		{
			"mesh":37,
			"name":"\u7403.048"
		},
		{
			"mesh":38,
			"name":"\u7403.049"
		},
		{
			"mesh":39,
			"name":"\u7403.052"
		},
		{
			"mesh":40,
			"name":"\u7403.053"
		},
		{
			"mesh":41,
			"name":"\u7403.054"
		},
		{
			"mesh":42,
			"name":"\u7403.055"
		},
		{
			"mesh":43,
			"name":"\u7403.056"
		},
		{
			"mesh":44,
			"name":"\u7403.057"
		},
		{
			"mesh":45,
			"name":"\u7403.058"
		},
		{
			"mesh":46,
			"name":"\u7403.059"
		},
		{
			"mesh":47,
			"name":"\u7403.031"
		},
		{
			"mesh":48,
			"name":"\u7403.032"
		},
		{
			"mesh":49,
			"name":"\u7403.034"
		},
		{
			"mesh":50,
			"name":"\u7403.038"
		},
		{
			"mesh":51,
			"name":"\u7403.039"
		},
		{
			"mesh":52,
			"name":"\u7403.060"
		},
		{
			"mesh":53,
			"name":"\u7403.061"
		},
		{
			"mesh":54,
			"name":"\u7403.062"
		},
		{
			"mesh":55,
			"name":"\u7403.063"
		},
		{
			"mesh":56,
			"name":"\u7403.064"
		},
		{
			"mesh":57,
			"name":"\u7403.065"
		},
		{
			"mesh":58,
			"name":"\u7403.066"
		},
		{
			"mesh":59,
			"name":"\u7403.067"
		},
		{
			"mesh":60,
			"name":"\u7403.068"
		},
		{
			"mesh":61,
			"name":"\u7403.069"
		},
		{
			"mesh":62,
			"name":"\u7403.070"
		},
		{
			"mesh":63,
			"name":"\u7403.004"
		},
		{
			"mesh":64,
			"name":"\u7403.071"
		},
		{
			"mesh":65,
			"name":"\u7403.072"
		},
		{
			"mesh":66,
			"name":"\u7403.073"
		},
		{
			"mesh":67,
			"name":"\u7403.074"
		},
		{
			"mesh":68,
			"name":"\u7403.075"
		},
		{
			"mesh":69,
			"name":"\u7403.076"
		}
	],
	"meshes":[
		{
			"name":"\u7403.001",
			"primitives":[
				{
					"attributes":{
						"POSITION":0,
						"NORMAL":1,
						"TEXCOORD_0":2,
						"TEXCOORD_1":3
					},
					"indices":4
				}
			]
		},
		{
			"name":"\u7403.002",
			"primitives":[
				{
					"attributes":{
						"POSITION":5,
						"NORMAL":6,
						"TEXCOORD_0":7,
						"TEXCOORD_1":8
					},
					"indices":9
				}
			]
		},
		{
			"name":"\u7403.003",
			"primitives":[
				{
					"attributes":{
						"POSITION":10,
						"NORMAL":11,
						"TEXCOORD_0":12,
						"TEXCOORD_1":13
					},
					"indices":14
				}
			]
		},
		{
			"name":"\u7403.004",
			"primitives":[
				{
					"attributes":{
						"POSITION":15,
						"NORMAL":16,
						"TEXCOORD_0":17,
						"TEXCOORD_1":18
					},
					"indices":19
				}
			]
		},
		{
			"name":"\u7403.006",
			"primitives":[
				{
					"attributes":{
						"POSITION":20,
						"NORMAL":21,
						"TEXCOORD_0":22,
						"TEXCOORD_1":23
					},
					"indices":24
				}
			]
		},
		{
			"name":"\u7403.007",
			"primitives":[
				{
					"attributes":{
						"POSITION":25,
						"NORMAL":26,
						"TEXCOORD_0":27,
						"TEXCOORD_1":28
					},
					"indices":29
				}
			]
		},
		{
			"name":"\u7403.008",
			"primitives":[
				{
					"attributes":{
						"POSITION":30,
						"NORMAL":31,
						"TEXCOORD_0":32,
						"TEXCOORD_1":33
					},
					"indices":34
				}
			]
		},
		{
			"name":"\u7403.009",
			"primitives":[
				{
					"attributes":{
						"POSITION":35,
						"NORMAL":36,
						"TEXCOORD_0":37,
						"TEXCOORD_1":38
					},
					"indices":39
				}
			]
		},
		{
			"name":"\u7403.012",
			"primitives":[
				{
					"attributes":{
						"POSITION":40,
						"NORMAL":41,
						"TEXCOORD_0":42,
						"TEXCOORD_1":43
					},
					"indices":24
				}
			]
		},
		{
			"name":"\u7403.013",
			"primitives":[
				{
					"attributes":{
						"POSITION":44,
						"NORMAL":45,
						"TEXCOORD_0":46,
						"TEXCOORD_1":47
					},
					"indices":9
				}
			]
		},
		{
			"name":"\u7403.014",
			"primitives":[
				{
					"attributes":{
						"POSITION":48,
						"NORMAL":49,
						"TEXCOORD_0":50,
						"TEXCOORD_1":51
					},
					"indices":52
				}
			]
		},
		{
			"name":"\u7403.015",
			"primitives":[
				{
					"attributes":{
						"POSITION":53,
						"NORMAL":54,
						"TEXCOORD_0":55,
						"TEXCOORD_1":56
					},
					"indices":9
				}
			]
		},
		{
			"name":"\u7403.017",
			"primitives":[
				{
					"attributes":{
						"POSITION":57,
						"NORMAL":58,
						"TEXCOORD_0":59,
						"TEXCOORD_1":60
					},
					"indices":24
				}
			]
		},
		{
			"name":"\u7403.019",
			"primitives":[
				{
					"attributes":{
						"POSITION":61,
						"NORMAL":62,
						"TEXCOORD_0":63,
						"TEXCOORD_1":64
					},
					"indices":24
				}
			]
		},
		{
			"name":"\u7403.020",
			"primitives":[
				{
					"attributes":{
						"POSITION":65,
						"NORMAL":66,
						"TEXCOORD_0":67,
						"TEXCOORD_1":68
					},
					"indices":24
				}
			]
		},
		{
			"name":"\u7403.021",
			"primitives":[
				{
					"attributes":{
						"POSITION":69,
						"NORMAL":70,
						"TEXCOORD_0":71,
						"TEXCOORD_1":72
					},
					"indices":52
				}
			]
		},
		{
			"name":"\u7403.022",
			"primitives":[
				{
					"attributes":{
						"POSITION":73,
						"NORMAL":74,
						"TEXCOORD_0":75,
						"TEXCOORD_1":76
					},
					"indices":14
				}
			]
		},
		{
			"name":"\u7403.023",
			"primitives":[
				{
					"attributes":{
						"POSITION":77,
						"NORMAL":78,
						"TEXCOORD_0":79,
						"TEXCOORD_1":80
					},
					"indices":81
				}
			]
		},
		{
			"name":"\u7403.024",
			"primitives":[
				{
					"attributes":{
						"POSITION":82,
						"NORMAL":83,
						"TEXCOORD_0":84,
						"TEXCOORD_1":85
					},
					"indices":24
				}
			]
		},
		{
			"name":"\u7403.025",
			"primitives":[
				{
					"attributes":{
						"POSITION":86,
						"NORMAL":87,
						"TEXCOORD_0":88,
						"TEXCOORD_1":89
					},
					"indices":90
				}
			]
		},
		{
			"name":"\u7403.026",
			"primitives":[
				{
					"attributes":{
						"POSITION":91,
						"NORMAL":92,
						"TEXCOORD_0":93,
						"TEXCOORD_1":94
					},
					"indices":95
				}
			]
		},
		{
			"name":"\u7403.027",
			"primitives":[
				{
					"attributes":{
						"POSITION":96,
						"NORMAL":97,
						"TEXCOORD_0":98,
						"TEXCOORD_1":99
					},
					"indices":100
				}
			]
		},
		{
			"name":"\u7403.028",
			"primitives":[
				{
					"attributes":{
						"POSITION":101,
						"NORMAL":102,
						"TEXCOORD_0":103,
						"TEXCOORD_1":104
					},
					"indices":81
				}
			]
		},
		{
			"name":"\u7403.029",
			"primitives":[
				{
					"attributes":{
						"POSITION":105,
						"NORMAL":106,
						"TEXCOORD_0":107,
						"TEXCOORD_1":108
					},
					"indices":24
				}
			]
		},
		{
			"name":"\u7403.030",
			"primitives":[
				{
					"attributes":{
						"POSITION":109,
						"NORMAL":110,
						"TEXCOORD_0":111,
						"TEXCOORD_1":112
					},
					"indices":113
				}
			]
		},
		{
			"name":"\u7403.031",
			"primitives":[
				{
					"attributes":{
						"POSITION":114,
						"NORMAL":115,
						"TEXCOORD_0":116,
						"TEXCOORD_1":117
					},
					"indices":24
				}
			]
		},
		{
			"name":"\u7403.036",
			"primitives":[
				{
					"attributes":{
						"POSITION":118,
						"NORMAL":119,
						"TEXCOORD_0":120,
						"TEXCOORD_1":121
					},
					"indices":24
				}
			]
		},
		{
			"name":"\u7403.037",
			"primitives":[
				{
					"attributes":{
						"POSITION":122,
						"NORMAL":123,
						"TEXCOORD_0":124,
						"TEXCOORD_1":125
					},
					"indices":9
				}
			]
		},
		{
			"name":"\u7403.038",
			"primitives":[
				{
					"attributes":{
						"POSITION":126,
						"NORMAL":127,
						"TEXCOORD_0":128,
						"TEXCOORD_1":129
					},
					"indices":9
				}
			]
		},
		{
			"name":"\u7403.041",
			"primitives":[
				{
					"attributes":{
						"POSITION":130,
						"NORMAL":131,
						"TEXCOORD_0":132,
						"TEXCOORD_1":133
					},
					"indices":19
				}
			]
		},
		{
			"name":"\u7403.042",
			"primitives":[
				{
					"attributes":{
						"POSITION":134,
						"NORMAL":135,
						"TEXCOORD_0":136,
						"TEXCOORD_1":137
					},
					"indices":14
				}
			]
		},
		{
			"name":"\u7403.043",
			"primitives":[
				{
					"attributes":{
						"POSITION":138,
						"NORMAL":139,
						"TEXCOORD_0":140,
						"TEXCOORD_1":141
					},
					"indices":14
				}
			]
		},
		{
			"name":"\u7403.044",
			"primitives":[
				{
					"attributes":{
						"POSITION":142,
						"NORMAL":143,
						"TEXCOORD_0":144,
						"TEXCOORD_1":145
					},
					"indices":146
				}
			]
		},
		{
			"name":"\u7403.045",
			"primitives":[
				{
					"attributes":{
						"POSITION":147,
						"NORMAL":148,
						"TEXCOORD_0":149,
						"TEXCOORD_1":150
					},
					"indices":151
				}
			]
		},
		{
			"name":"\u7403.046",
			"primitives":[
				{
					"attributes":{
						"POSITION":152,
						"NORMAL":153,
						"TEXCOORD_0":154,
						"TEXCOORD_1":155
					},
					"indices":156
				}
			]
		},
		{
			"name":"\u7403.047",
			"primitives":[
				{
					"attributes":{
						"POSITION":157,
						"NORMAL":158,
						"TEXCOORD_0":159,
						"TEXCOORD_1":160
					},
					"indices":151
				}
			]
		},
		{
			"name":"\u7403.048",
			"primitives":[
				{
					"attributes":{
						"POSITION":161,
						"NORMAL":162,
						"TEXCOORD_0":163,
						"TEXCOORD_1":164
					},
					"indices":165
				}
			]
		},
		{
			"name":"\u7403.049",
			"primitives":[
				{
					"attributes":{
						"POSITION":166,
						"NORMAL":167,
						"TEXCOORD_0":168,
						"TEXCOORD_1":169
					},
					"indices":156
				}
			]
		},
		{
			"name":"\u7403.050",
			"primitives":[
				{
					"attributes":{
						"POSITION":170,
						"NORMAL":171,
						"TEXCOORD_0":172,
						"TEXCOORD_1":173
					},
					"indices":52
				}
			]
		},
		{
			"name":"\u7403.053",
			"primitives":[
				{
					"attributes":{
						"POSITION":174,
						"NORMAL":175,
						"TEXCOORD_0":176,
						"TEXCOORD_1":177
					},
					"indices":165
				}
			]
		},
		{
			"name":"\u7403.054",
			"primitives":[
				{
					"attributes":{
						"POSITION":178,
						"NORMAL":179,
						"TEXCOORD_0":180,
						"TEXCOORD_1":181
					},
					"indices":182
				}
			]
		},
		{
			"name":"\u7403.055",
			"primitives":[
				{
					"attributes":{
						"POSITION":183,
						"NORMAL":184,
						"TEXCOORD_0":185,
						"TEXCOORD_1":186
					},
					"indices":24
				}
			]
		},
		{
			"name":"\u7403.056",
			"primitives":[
				{
					"attributes":{
						"POSITION":187,
						"NORMAL":188,
						"TEXCOORD_0":189,
						"TEXCOORD_1":190
					},
					"indices":29
				}
			]
		},
		{
			"name":"\u7403.057",
			"primitives":[
				{
					"attributes":{
						"POSITION":191,
						"NORMAL":192,
						"TEXCOORD_0":193,
						"TEXCOORD_1":194
					},
					"indices":195
				}
			]
		},
		{
			"name":"\u7403.058",
			"primitives":[
				{
					"attributes":{
						"POSITION":196,
						"NORMAL":197,
						"TEXCOORD_0":198,
						"TEXCOORD_1":199
					},
					"indices":200
				}
			]
		},
		{
			"name":"\u7403.059",
			"primitives":[
				{
					"attributes":{
						"POSITION":201,
						"NORMAL":202,
						"TEXCOORD_0":203,
						"TEXCOORD_1":204
					},
					"indices":34
				}
			]
		},
		{
			"name":"\u7403.060",
			"primitives":[
				{
					"attributes":{
						"POSITION":205,
						"NORMAL":206,
						"TEXCOORD_0":207,
						"TEXCOORD_1":208
					},
					"indices":34
				}
			]
		},
		{
			"name":"\u7403.061",
			"primitives":[
				{
					"attributes":{
						"POSITION":209,
						"NORMAL":210,
						"TEXCOORD_0":211,
						"TEXCOORD_1":212
					},
					"indices":100
				}
			]
		},
		{
			"name":"\u7403.062",
			"primitives":[
				{
					"attributes":{
						"POSITION":213,
						"NORMAL":214,
						"TEXCOORD_0":215,
						"TEXCOORD_1":216
					},
					"indices":146
				}
			]
		},
		{
			"name":"\u7403.065",
			"primitives":[
				{
					"attributes":{
						"POSITION":217,
						"NORMAL":218,
						"TEXCOORD_0":219,
						"TEXCOORD_1":220
					},
					"indices":39
				}
			]
		},
		{
			"name":"\u7403.066",
			"primitives":[
				{
					"attributes":{
						"POSITION":221,
						"NORMAL":222,
						"TEXCOORD_0":223,
						"TEXCOORD_1":224
					},
					"indices":24
				}
			]
		},
		{
			"name":"\u7403.067",
			"primitives":[
				{
					"attributes":{
						"POSITION":225,
						"NORMAL":226,
						"TEXCOORD_0":227,
						"TEXCOORD_1":228
					},
					"indices":229
				}
			]
		},
		{
			"name":"\u7403.068",
			"primitives":[
				{
					"attributes":{
						"POSITION":230,
						"NORMAL":231,
						"TEXCOORD_0":232,
						"TEXCOORD_1":233
					},
					"indices":182
				}
			]
		},
		{
			"name":"\u7403.069",
			"primitives":[
				{
					"attributes":{
						"POSITION":234,
						"NORMAL":235,
						"TEXCOORD_0":236,
						"TEXCOORD_1":237
					},
					"indices":238
				}
			]
		},
		{
			"name":"\u7403.070",
			"primitives":[
				{
					"attributes":{
						"POSITION":239,
						"NORMAL":240,
						"TEXCOORD_0":241,
						"TEXCOORD_1":242
					},
					"indices":243
				}
			]
		},
		{
			"name":"\u7403.071",
			"primitives":[
				{
					"attributes":{
						"POSITION":244,
						"NORMAL":245,
						"TEXCOORD_0":246,
						"TEXCOORD_1":247
					},
					"indices":248
				}
			]
		},
		{
			"name":"\u7403.072",
			"primitives":[
				{
					"attributes":{
						"POSITION":249,
						"NORMAL":250,
						"TEXCOORD_0":251,
						"TEXCOORD_1":252
					},
					"indices":253
				}
			]
		},
		{
			"name":"\u7403.073",
			"primitives":[
				{
					"attributes":{
						"POSITION":254,
						"NORMAL":255,
						"TEXCOORD_0":256,
						"TEXCOORD_1":257
					},
					"indices":243
				}
			]
		},
		{
			"name":"\u7403.074",
			"primitives":[
				{
					"attributes":{
						"POSITION":258,
						"NORMAL":259,
						"TEXCOORD_0":260,
						"TEXCOORD_1":261
					},
					"indices":243
				}
			]
		},
		{
			"name":"\u7403.075",
			"primitives":[
				{
					"attributes":{
						"POSITION":262,
						"NORMAL":263,
						"TEXCOORD_0":264,
						"TEXCOORD_1":265
					},
					"indices":266
				}
			]
		},
		{
			"name":"\u7403.076",
			"primitives":[
				{
					"attributes":{
						"POSITION":267,
						"NORMAL":268,
						"TEXCOORD_0":269,
						"TEXCOORD_1":270
					},
					"indices":271
				}
			]
		},
		{
			"name":"\u7403.077",
			"primitives":[
				{
					"attributes":{
						"POSITION":272,
						"NORMAL":273,
						"TEXCOORD_0":274,
						"TEXCOORD_1":275
					},
					"indices":182
				}
			]
		},
		{
			"name":"\u7403.078",
			"primitives":[
				{
					"attributes":{
						"POSITION":276,
						"NORMAL":277,
						"TEXCOORD_0":278,
						"TEXCOORD_1":279
					},
					"indices":24
				}
			]
		},
		{
			"name":"\u7403.079",
			"primitives":[
				{
					"attributes":{
						"POSITION":280,
						"NORMAL":281,
						"TEXCOORD_0":282,
						"TEXCOORD_1":283
					},
					"indices":253
				}
			]
		},
		{
			"name":"\u7403.080",
			"primitives":[
				{
					"attributes":{
						"POSITION":284,
						"NORMAL":285,
						"TEXCOORD_0":286,
						"TEXCOORD_1":287
					},
					"indices":288
				}
			]
		},
		{
			"name":"\u7403.081",
			"primitives":[
				{
					"attributes":{
						"POSITION":289,
						"NORMAL":290,
						"TEXCOORD_0":291,
						"TEXCOORD_1":292
					},
					"indices":229
				}
			]
		},
		{
			"name":"\u7403.082",
			"primitives":[
				{
					"attributes":{
						"POSITION":293,
						"NORMAL":294,
						"TEXCOORD_0":295,
						"TEXCOORD_1":296
					},
					"indices":243
				}
			]
		},
		{
			"name":"\u7403.083",
			"primitives":[
				{
					"attributes":{
						"POSITION":297,
						"NORMAL":298,
						"TEXCOORD_0":299,
						"TEXCOORD_1":300
					},
					"indices":301
				}
			]
		},
		{
			"name":"\u7403.084",
			"primitives":[
				{
					"attributes":{
						"POSITION":302,
						"NORMAL":303,
						"TEXCOORD_0":304,
						"TEXCOORD_1":305
					},
					"indices":24
				}
			]
		},
		{
			"name":"\u7403.085",
			"primitives":[
				{
					"attributes":{
						"POSITION":306,
						"NORMAL":307,
						"TEXCOORD_0":308,
						"TEXCOORD_1":309
					},
					"indices":113
				}
			]
		}
	],
	"accessors":[
		{
			"bufferView":0,
			"componentType":5126,
			"count":1984,
			"max":[
				0.2999999225139618,
				0.6420761346817017,
				0.29999980330467224
			],
			"min":[
				-0.2999997138977051,
				0.0420762300491333,
				-0.30000001192092896
			],
			"type":"VEC3"
		},
		{
			"bufferView":1,
			"componentType":5126,
			"count":1984,
			"type":"VEC3"
		},
		{
			"bufferView":2,
			"componentType":5126,
			"count":1984,
			"type":"VEC2"
		},
		{
			"bufferView":3,
			"componentType":5126,
			"count":1984,
			"type":"VEC2"
		},
		{
			"bufferView":4,
			"componentType":5123,
			"count":2880,
			"type":"SCALAR"
		},
		{
			"bufferView":5,
			"componentType":5126,
			"count":1984,
			"max":[
				9.300000190734863,
				0.642072319984436,
				0.29999980330467224
			],
			"min":[
				8.700000762939453,
				0.042072415351867676,
				-0.30000001192092896
			],
			"type":"VEC3"
		},
		{
			"bufferView":6,
			"componentType":5126,
			"count":1984,
			"type":"VEC3"
		},
		{
			"bufferView":7,
			"componentType":5126,
			"count":1984,
			"type":"VEC2"
		},
		{
			"bufferView":8,
			"componentType":5126,
			"count":1984,
			"type":"VEC2"
		},
		{
			"bufferView":9,
			"componentType":5123,
			"count":2880,
			"type":"SCALAR"
		},
		{
			"bufferView":10,
			"componentType":5126,
			"count":1984,
			"max":[
				9.300000190734863,
				0.642072319984436,
				-11.699999809265137
			],
			"min":[
				8.700000762939453,
				0.042072415351867676,
				-12.300000190734863
			],
			"type":"VEC3"
		},
		{
			"bufferView":11,
			"componentType":5126,
			"count":1984,
			"type":"VEC3"
		},
		{
			"bufferView":12,
			"componentType":5126,
			"count":1984,
			"type":"VEC2"
		},
		{
			"bufferView":13,
			"componentType":5126,
			"count":1984,
			"type":"VEC2"
		},
		{
			"bufferView":14,
			"componentType":5123,
			"count":2880,
			"type":"SCALAR"
		},
		{
			"bufferView":15,
			"componentType":5126,
			"count":1984,
			"max":[
				21.299999237060547,
				0.642072319984436,
				-11.699999809265137
			],
			"min":[
				20.700000762939453,
				0.042072415351867676,
				-12.300000190734863
			],
			"type":"VEC3"
		},
		{
			"bufferView":16,
			"componentType":5126,
			"count":1984,
			"type":"VEC3"
		},
		{
			"bufferView":17,
			"componentType":5126,
			"count":1984,
			"type":"VEC2"
		},
		{
			"bufferView":18,
			"componentType":5126,
			"count":1984,
			"type":"VEC2"
		},
		{
			"bufferView":19,
			"componentType":5123,
			"count":2880,
			"type":"SCALAR"
		},
		{
			"bufferView":20,
			"componentType":5126,
			"count":1984,
			"max":[
				27.299999237060547,
				0.642072319984436,
				-23.700000762939453
			],
			"min":[
				26.700000762939453,
				0.042072415351867676,
				-24.299999237060547
			],
			"type":"VEC3"
		},
		{
			"bufferView":21,
			"componentType":5126,
			"count":1984,
			"type":"VEC3"
		},
		{
			"bufferView":22,
			"componentType":5126,
			"count":1984,
			"type":"VEC2"
		},
		{
			"bufferView":23,
			"componentType":5126,
			"count":1984,
			"type":"VEC2"
		},
		{
			"bufferView":24,
			"componentType":5123,
			"count":2880,
			"type":"SCALAR"
		},
		{
			"bufferView":25,
			"componentType":5126,
			"count":1984,
			"max":[
				9.300000190734863,
				0.642072319984436,
				-23.700000762939453
			],
			"min":[
				8.700000762939453,
				0.042072415351867676,
				-24.299999237060547
			],
			"type":"VEC3"
		},
		{
			"bufferView":26,
			"componentType":5126,
			"count":1984,
			"type":"VEC3"
		},
		{
			"bufferView":27,
			"componentType":5126,
			"count":1984,
			"type":"VEC2"
		},
		{
			"bufferView":28,
			"componentType":5126,
			"count":1984,
			"type":"VEC2"
		},
		{
			"bufferView":29,
			"componentType":5123,
			"count":2880,
			"type":"SCALAR"
		},
		{
			"bufferView":30,
			"componentType":5126,
			"count":1984,
			"max":[
				3.299999952316284,
				0.642072319984436,
				-23.700000762939453
			],
			"min":[
				2.700000286102295,
				0.042072415351867676,
				-24.299999237060547
			],
			"type":"VEC3"
		},
		{
			"bufferView":31,
			"componentType":5126,
			"count":1984,
			"type":"VEC3"
		},
		{
			"bufferView":32,
			"componentType":5126,
			"count":1984,
			"type":"VEC2"
		},
		{
			"bufferView":33,
			"componentType":5126,
			"count":1984,
			"type":"VEC2"
		},
		{
			"bufferView":34,
			"componentType":5123,
			"count":2880,
			"type":"SCALAR"
		},
		{
			"bufferView":35,
			"componentType":5126,
			"count":1984,
			"max":[
				3.299999952316284,
				0.642072319984436,
				-5.700000286102295
			],
			"min":[
				2.700000286102295,
				0.042072415351867676,
				-6.300000190734863
			],
			"type":"VEC3"
		},
		{
			"bufferView":36,
			"componentType":5126,
			"count":1984,
			"type":"VEC3"
		},
		{
			"bufferView":37,
			"componentType":5126,
			"count":1984,
			"type":"VEC2"
		},
		{
			"bufferView":38,
			"componentType":5126,
			"count":1984,
			"type":"VEC2"
		},
		{
			"bufferView":39,
			"componentType":5123,
			"count":2880,
			"type":"SCALAR"
		},
		{
			"bufferView":40,
			"componentType":5126,
			"count":1984,
			"max":[
				-14.699999809265137,
				0.642072319984436,
				-5.700000286102295
			],
			"min":[
				-15.299999237060547,
				0.042072415351867676,
				-6.300000190734863
			],
			"type":"VEC3"
		},
		{
			"bufferView":41,
			"componentType":5126,
			"count":1984,
			"type":"VEC3"
		},
		{
			"bufferView":42,
			"componentType":5126,
			"count":1984,
			"type":"VEC2"
		},
		{
			"bufferView":43,
			"componentType":5126,
			"count":1984,
			"type":"VEC2"
		},
		{
			"bufferView":44,
			"componentType":5126,
			"count":1984,
			"max":[
				-8.699999809265137,
				0.642072319984436,
				0.29999980330467224
			],
			"min":[
				-9.299999237060547,
				0.042072415351867676,
				-0.30000001192092896
			],
			"type":"VEC3"
		},
		{
			"bufferView":45,
			"componentType":5126,
			"count":1984,
			"type":"VEC3"
		},
		{
			"bufferView":46,
			"componentType":5126,
			"count":1984,
			"type":"VEC2"
		},
		{
			"bufferView":47,
			"componentType":5126,
			"count":1984,
			"type":"VEC2"
		},
		{
			"bufferView":48,
			"componentType":5126,
			"count":1984,
			"max":[
				27.299999237060547,
				0.642072319984436,
				-11.699999809265137
			],
			"min":[
				26.700000762939453,
				0.042072415351867676,
				-12.300000190734863
			],
			"type":"VEC3"
		},
		{
			"bufferView":49,
			"componentType":5126,
			"count":1984,
			"type":"VEC3"
		},
		{
			"bufferView":50,
			"componentType":5126,
			"count":1984,
			"type":"VEC2"
		},
		{
			"bufferView":51,
			"componentType":5126,
			"count":1984,
			"type":"VEC2"
		},
		{
			"bufferView":52,
			"componentType":5123,
			"count":2880,
			"type":"SCALAR"
		},
		{
			"bufferView":53,
			"componentType":5126,
			"count":1984,
			"max":[
				27.299999237060547,
				0.642072319984436,
				0.29999980330467224
			],
			"min":[
				26.700000762939453,
				0.042072415351867676,
				-0.30000001192092896
			],
			"type":"VEC3"
		},
		{
			"bufferView":54,
			"componentType":5126,
			"count":1984,
			"type":"VEC3"
		},
		{
			"bufferView":55,
			"componentType":5126,
			"count":1984,
			"type":"VEC2"
		},
		{
			"bufferView":56,
			"componentType":5126,
			"count":1984,
			"type":"VEC2"
		},
		{
			"bufferView":57,
			"componentType":5126,
			"count":1984,
			"max":[
				15.300000190734863,
				0.642072319984436,
				-2.700000286102295
			],
			"min":[
				14.700000762939453,
				0.042072415351867676,
				-3.299999952316284
			],
			"type":"VEC3"
		},
		{
			"bufferView":58,
			"componentType":5126,
			"count":1984,
			"type":"VEC3"
		},
		{
			"bufferView":59,
			"componentType":5126,
			"count":1984,
			"type":"VEC2"
		},
		{
			"bufferView":60,
			"componentType":5126,
			"count":1984,
			"type":"VEC2"
		},
		{
			"bufferView":61,
			"componentType":5126,
			"count":1984,
			"max":[
				27.299999237060547,
				0.642072319984436,
				6.299999713897705
			],
			"min":[
				26.700000762939453,
				0.042072415351867676,
				5.699999809265137
			],
			"type":"VEC3"
		},
		{
			"bufferView":62,
			"componentType":5126,
			"count":1984,
			"type":"VEC3"
		},
		{
			"bufferView":63,
			"componentType":5126,
			"count":1984,
			"type":"VEC2"
		},
		{
			"bufferView":64,
			"componentType":5126,
			"count":1984,
			"type":"VEC2"
		},
		{
			"bufferView":65,
			"componentType":5126,
			"count":1984,
			"max":[
				15.300000190734863,
				0.642072319984436,
				6.299999713897705
			],
			"min":[
				14.700000762939453,
				0.042072415351867676,
				5.699999809265137
			],
			"type":"VEC3"
		},
		{
			"bufferView":66,
			"componentType":5126,
			"count":1984,
			"type":"VEC3"
		},
		{
			"bufferView":67,
			"componentType":5126,
			"count":1984,
			"type":"VEC2"
		},
		{
			"bufferView":68,
			"componentType":5126,
			"count":1984,
			"type":"VEC2"
		},
		{
			"bufferView":69,
			"componentType":5126,
			"count":1984,
			"max":[
				27.299999237060547,
				0.642072319984436,
				12.300000190734863
			],
			"min":[
				26.700000762939453,
				0.042072415351867676,
				11.699999809265137
			],
			"type":"VEC3"
		},
		{
			"bufferView":70,
			"componentType":5126,
			"count":1984,
			"type":"VEC3"
		},
		{
			"bufferView":71,
			"componentType":5126,
			"count":1984,
			"type":"VEC2"
		},
		{
			"bufferView":72,
			"componentType":5126,
			"count":1984,
			"type":"VEC2"
		},
		{
			"bufferView":73,
			"componentType":5126,
			"count":1984,
			"max":[
				15.300000190734863,
				0.642072319984436,
				12.300000190734863
			],
			"min":[
				14.700000762939453,
				0.042072415351867676,
				11.699999809265137
			],
			"type":"VEC3"
		},
		{
			"bufferView":74,
			"componentType":5126,
			"count":1984,
			"type":"VEC3"
		},
		{
			"bufferView":75,
			"componentType":5126,
			"count":1984,
			"type":"VEC2"
		},
		{
			"bufferView":76,
			"componentType":5126,
			"count":1984,
			"type":"VEC2"
		},
		{
			"bufferView":77,
			"componentType":5126,
			"count":1984,
			"max":[
				15.300000190734863,
				0.642072319984436,
				24.299999237060547
			],
			"min":[
				14.700000762939453,
				0.042072415351867676,
				23.700000762939453
			],
			"type":"VEC3"
		},
		{
			"bufferView":78,
			"componentType":5126,
			"count":1984,
			"type":"VEC3"
		},
		{
			"bufferView":79,
			"componentType":5126,
			"count":1984,
			"type":"VEC2"
		},
		{
			"bufferView":80,
			"componentType":5126,
			"count":1984,
			"type":"VEC2"
		},
		{
			"bufferView":81,
			"componentType":5123,
			"count":2880,
			"type":"SCALAR"
		},
		{
			"bufferView":82,
			"componentType":5126,
			"count":1984,
			"max":[
				27.299999237060547,
				0.642072319984436,
				24.299999237060547
			],
			"min":[
				26.700000762939453,
				0.042072415351867676,
				23.700000762939453
			],
			"type":"VEC3"
		},
		{
			"bufferView":83,
			"componentType":5126,
			"count":1984,
			"type":"VEC3"
		},
		{
			"bufferView":84,
			"componentType":5126,
			"count":1984,
			"type":"VEC2"
		},
		{
			"bufferView":85,
			"componentType":5126,
			"count":1984,
			"type":"VEC2"
		},
		{
			"bufferView":86,
			"componentType":5126,
			"count":1984,
			"max":[
				-2.700000047683716,
				0.642072319984436,
				24.299999237060547
			],
			"min":[
				-3.299999713897705,
				0.042072415351867676,
				23.700000762939453
			],
			"type":"VEC3"
		},
		{
			"bufferView":87,
			"componentType":5126,
			"count":1984,
			"type":"VEC3"
		},
		{
			"bufferView":88,
			"componentType":5126,
			"count":1984,
			"type":"VEC2"
		},
		{
			"bufferView":89,
			"componentType":5126,
			"count":1984,
			"type":"VEC2"
		},
		{
			"bufferView":90,
			"componentType":5123,
			"count":2880,
			"type":"SCALAR"
		},
		{
			"bufferView":91,
			"componentType":5126,
			"count":1984,
			"max":[
				-2.700000047683716,
				0.642072319984436,
				18.299999237060547
			],
			"min":[
				-3.299999713897705,
				0.042072415351867676,
				17.700000762939453
			],
			"type":"VEC3"
		},
		{
			"bufferView":92,
			"componentType":5126,
			"count":1984,
			"type":"VEC3"
		},
		{
			"bufferView":93,
			"componentType":5126,
			"count":1984,
			"type":"VEC2"
		},
		{
			"bufferView":94,
			"componentType":5126,
			"count":1984,
			"type":"VEC2"
		},
		{
			"bufferView":95,
			"componentType":5123,
			"count":2880,
			"type":"SCALAR"
		},
		{
			"bufferView":96,
			"componentType":5126,
			"count":1984,
			"max":[
				-26.700000762939453,
				0.642072319984436,
				18.299999237060547
			],
			"min":[
				-27.299999237060547,
				0.042072415351867676,
				17.700000762939453
			],
			"type":"VEC3"
		},
		{
			"bufferView":97,
			"componentType":5126,
			"count":1984,
			"type":"VEC3"
		},
		{
			"bufferView":98,
			"componentType":5126,
			"count":1984,
			"type":"VEC2"
		},
		{
			"bufferView":99,
			"componentType":5126,
			"count":1984,
			"type":"VEC2"
		},
		{
			"bufferView":100,
			"componentType":5123,
			"count":2880,
			"type":"SCALAR"
		},
		{
			"bufferView":101,
			"componentType":5126,
			"count":1984,
			"max":[
				-14.699999809265137,
				0.642072319984436,
				24.299999237060547
			],
			"min":[
				-15.299999237060547,
				0.042072415351867676,
				23.700000762939453
			],
			"type":"VEC3"
		},
		{
			"bufferView":102,
			"componentType":5126,
			"count":1984,
			"type":"VEC3"
		},
		{
			"bufferView":103,
			"componentType":5126,
			"count":1984,
			"type":"VEC2"
		},
		{
			"bufferView":104,
			"componentType":5126,
			"count":1984,
			"type":"VEC2"
		},
		{
			"bufferView":105,
			"componentType":5126,
			"count":1984,
			"max":[
				-26.700000762939453,
				0.642072319984436,
				24.299999237060547
			],
			"min":[
				-27.299999237060547,
				0.042072415351867676,
				23.700000762939453
			],
			"type":"VEC3"
		},
		{
			"bufferView":106,
			"componentType":5126,
			"count":1984,
			"type":"VEC3"
		},
		{
			"bufferView":107,
			"componentType":5126,
			"count":1984,
			"type":"VEC2"
		},
		{
			"bufferView":108,
			"componentType":5126,
			"count":1984,
			"type":"VEC2"
		},
		{
			"bufferView":109,
			"componentType":5126,
			"count":1984,
			"max":[
				-8.699999809265137,
				0.642072319984436,
				18.299999237060547
			],
			"min":[
				-9.299999237060547,
				0.042072415351867676,
				17.700000762939453
			],
			"type":"VEC3"
		},
		{
			"bufferView":110,
			"componentType":5126,
			"count":1984,
			"type":"VEC3"
		},
		{
			"bufferView":111,
			"componentType":5126,
			"count":1984,
			"type":"VEC2"
		},
		{
			"bufferView":112,
			"componentType":5126,
			"count":1984,
			"type":"VEC2"
		},
		{
			"bufferView":113,
			"componentType":5123,
			"count":2880,
			"type":"SCALAR"
		},
		{
			"bufferView":114,
			"componentType":5126,
			"count":1984,
			"max":[
				-8.699999809265137,
				0.642072319984436,
				6.299999713897705
			],
			"min":[
				-9.299999237060547,
				0.042072415351867676,
				5.699999809265137
			],
			"type":"VEC3"
		},
		{
			"bufferView":115,
			"componentType":5126,
			"count":1984,
			"type":"VEC3"
		},
		{
			"bufferView":116,
			"componentType":5126,
			"count":1984,
			"type":"VEC2"
		},
		{
			"bufferView":117,
			"componentType":5126,
			"count":1984,
			"type":"VEC2"
		},
		{
			"bufferView":118,
			"componentType":5126,
			"count":1984,
			"max":[
				-26.700000762939453,
				0.642072319984436,
				6.299999713897705
			],
			"min":[
				-27.299999237060547,
				0.042072415351867676,
				5.699999809265137
			],
			"type":"VEC3"
		},
		{
			"bufferView":119,
			"componentType":5126,
			"count":1984,
			"type":"VEC3"
		},
		{
			"bufferView":120,
			"componentType":5126,
			"count":1984,
			"type":"VEC2"
		},
		{
			"bufferView":121,
			"componentType":5126,
			"count":1984,
			"type":"VEC2"
		},
		{
			"bufferView":122,
			"componentType":5126,
			"count":1984,
			"max":[
				-26.700000762939453,
				0.642072319984436,
				0.29999980330467224
			],
			"min":[
				-27.299999237060547,
				0.042072415351867676,
				-0.30000001192092896
			],
			"type":"VEC3"
		},
		{
			"bufferView":123,
			"componentType":5126,
			"count":1984,
			"type":"VEC3"
		},
		{
			"bufferView":124,
			"componentType":5126,
			"count":1984,
			"type":"VEC2"
		},
		{
			"bufferView":125,
			"componentType":5126,
			"count":1984,
			"type":"VEC2"
		},
		{
			"bufferView":126,
			"componentType":5126,
			"count":1984,
			"max":[
				-20.700000762939453,
				0.642072319984436,
				0.29999980330467224
			],
			"min":[
				-21.299999237060547,
				0.042072415351867676,
				-0.30000001192092896
			],
			"type":"VEC3"
		},
		{
			"bufferView":127,
			"componentType":5126,
			"count":1984,
			"type":"VEC3"
		},
		{
			"bufferView":128,
			"componentType":5126,
			"count":1984,
			"type":"VEC2"
		},
		{
			"bufferView":129,
			"componentType":5126,
			"count":1984,
			"type":"VEC2"
		},
		{
			"bufferView":130,
			"componentType":5126,
			"count":1984,
			"max":[
				-20.700000762939453,
				0.642072319984436,
				-11.699999809265137
			],
			"min":[
				-21.299999237060547,
				0.042072415351867676,
				-12.300000190734863
			],
			"type":"VEC3"
		},
		{
			"bufferView":131,
			"componentType":5126,
			"count":1984,
			"type":"VEC3"
		},
		{
			"bufferView":132,
			"componentType":5126,
			"count":1984,
			"type":"VEC2"
		},
		{
			"bufferView":133,
			"componentType":5126,
			"count":1984,
			"type":"VEC2"
		},
		{
			"bufferView":134,
			"componentType":5126,
			"count":1984,
			"max":[
				-14.699999809265137,
				0.642072319984436,
				-11.699999809265137
			],
			"min":[
				-15.299999237060547,
				0.042072415351867676,
				-12.300000190734863
			],
			"type":"VEC3"
		},
		{
			"bufferView":135,
			"componentType":5126,
			"count":1984,
			"type":"VEC3"
		},
		{
			"bufferView":136,
			"componentType":5126,
			"count":1984,
			"type":"VEC2"
		},
		{
			"bufferView":137,
			"componentType":5126,
			"count":1984,
			"type":"VEC2"
		},
		{
			"bufferView":138,
			"componentType":5126,
			"count":1984,
			"max":[
				-8.699999809265137,
				0.642072319984436,
				-11.699999809265137
			],
			"min":[
				-9.299999237060547,
				0.042072415351867676,
				-12.300000190734863
			],
			"type":"VEC3"
		},
		{
			"bufferView":139,
			"componentType":5126,
			"count":1984,
			"type":"VEC3"
		},
		{
			"bufferView":140,
			"componentType":5126,
			"count":1984,
			"type":"VEC2"
		},
		{
			"bufferView":141,
			"componentType":5126,
			"count":1984,
			"type":"VEC2"
		},
		{
			"bufferView":142,
			"componentType":5126,
			"count":1984,
			"max":[
				3.299999952316284,
				0.642072319984436,
				-11.699999809265137
			],
			"min":[
				2.700000286102295,
				0.042072415351867676,
				-12.300000190734863
			],
			"type":"VEC3"
		},
		{
			"bufferView":143,
			"componentType":5126,
			"count":1984,
			"type":"VEC3"
		},
		{
			"bufferView":144,
			"componentType":5126,
			"count":1984,
			"type":"VEC2"
		},
		{
			"bufferView":145,
			"componentType":5126,
			"count":1984,
			"type":"VEC2"
		},
		{
			"bufferView":146,
			"componentType":5123,
			"count":2880,
			"type":"SCALAR"
		},
		{
			"bufferView":147,
			"componentType":5126,
			"count":1984,
			"max":[
				3.299999952316284,
				0.642072319984436,
				-17.700000762939453
			],
			"min":[
				2.700000286102295,
				0.042072415351867676,
				-18.299999237060547
			],
			"type":"VEC3"
		},
		{
			"bufferView":148,
			"componentType":5126,
			"count":1984,
			"type":"VEC3"
		},
		{
			"bufferView":149,
			"componentType":5126,
			"count":1984,
			"type":"VEC2"
		},
		{
			"bufferView":150,
			"componentType":5126,
			"count":1984,
			"type":"VEC2"
		},
		{
			"bufferView":151,
			"componentType":5123,
			"count":2880,
			"type":"SCALAR"
		},
		{
			"bufferView":152,
			"componentType":5126,
			"count":1984,
			"max":[
				-8.699999809265137,
				0.642072319984436,
				-17.700000762939453
			],
			"min":[
				-9.299999237060547,
				0.042072415351867676,
				-18.299999237060547
			],
			"type":"VEC3"
		},
		{
			"bufferView":153,
			"componentType":5126,
			"count":1984,
			"type":"VEC3"
		},
		{
			"bufferView":154,
			"componentType":5126,
			"count":1984,
			"type":"VEC2"
		},
		{
			"bufferView":155,
			"componentType":5126,
			"count":1984,
			"type":"VEC2"
		},
		{
			"bufferView":156,
			"componentType":5123,
			"count":2880,
			"type":"SCALAR"
		},
		{
			"bufferView":157,
			"componentType":5126,
			"count":1984,
			"max":[
				-2.700000047683716,
				0.642072319984436,
				-17.700000762939453
			],
			"min":[
				-3.299999713897705,
				0.042072415351867676,
				-18.299999237060547
			],
			"type":"VEC3"
		},
		{
			"bufferView":158,
			"componentType":5126,
			"count":1984,
			"type":"VEC3"
		},
		{
			"bufferView":159,
			"componentType":5126,
			"count":1984,
			"type":"VEC2"
		},
		{
			"bufferView":160,
			"componentType":5126,
			"count":1984,
			"type":"VEC2"
		},
		{
			"bufferView":161,
			"componentType":5126,
			"count":1984,
			"max":[
				-20.700000762939453,
				0.642072319984436,
				-17.700000762939453
			],
			"min":[
				-21.299999237060547,
				0.042072415351867676,
				-18.299999237060547
			],
			"type":"VEC3"
		},
		{
			"bufferView":162,
			"componentType":5126,
			"count":1984,
			"type":"VEC3"
		},
		{
			"bufferView":163,
			"componentType":5126,
			"count":1984,
			"type":"VEC2"
		},
		{
			"bufferView":164,
			"componentType":5126,
			"count":1984,
			"type":"VEC2"
		},
		{
			"bufferView":165,
			"componentType":5123,
			"count":2880,
			"type":"SCALAR"
		},
		{
			"bufferView":166,
			"componentType":5126,
			"count":1984,
			"max":[
				-14.699999809265137,
				0.642072319984436,
				-17.700000762939453
			],
			"min":[
				-15.299999237060547,
				0.042072415351867676,
				-18.299999237060547
			],
			"type":"VEC3"
		},
		{
			"bufferView":167,
			"componentType":5126,
			"count":1984,
			"type":"VEC3"
		},
		{
			"bufferView":168,
			"componentType":5126,
			"count":1984,
			"type":"VEC2"
		},
		{
			"bufferView":169,
			"componentType":5126,
			"count":1984,
			"type":"VEC2"
		},
		{
			"bufferView":170,
			"componentType":5126,
			"count":1984,
			"max":[
				-26.700000762939453,
				0.642072319984436,
				-11.699999809265137
			],
			"min":[
				-27.299999237060547,
				0.042072415351867676,
				-12.300000190734863
			],
			"type":"VEC3"
		},
		{
			"bufferView":171,
			"componentType":5126,
			"count":1984,
			"type":"VEC3"
		},
		{
			"bufferView":172,
			"componentType":5126,
			"count":1984,
			"type":"VEC2"
		},
		{
			"bufferView":173,
			"componentType":5126,
			"count":1984,
			"type":"VEC2"
		},
		{
			"bufferView":174,
			"componentType":5126,
			"count":1984,
			"max":[
				-26.700000762939453,
				0.642072319984436,
				-17.700000762939453
			],
			"min":[
				-27.299999237060547,
				0.042072415351867676,
				-18.299999237060547
			],
			"type":"VEC3"
		},
		{
			"bufferView":175,
			"componentType":5126,
			"count":1984,
			"type":"VEC3"
		},
		{
			"bufferView":176,
			"componentType":5126,
			"count":1984,
			"type":"VEC2"
		},
		{
			"bufferView":177,
			"componentType":5126,
			"count":1984,
			"type":"VEC2"
		},
		{
			"bufferView":178,
			"componentType":5126,
			"count":1984,
			"max":[
				-20.700000762939453,
				0.642072319984436,
				-35.70000076293945
			],
			"min":[
				-21.299999237060547,
				0.042072415351867676,
				-36.29999923706055
			],
			"type":"VEC3"
		},
		{
			"bufferView":179,
			"componentType":5126,
			"count":1984,
			"type":"VEC3"
		},
		{
			"bufferView":180,
			"componentType":5126,
			"count":1984,
			"type":"VEC2"
		},
		{
			"bufferView":181,
			"componentType":5126,
			"count":1984,
			"type":"VEC2"
		},
		{
			"bufferView":182,
			"componentType":5123,
			"count":2880,
			"type":"SCALAR"
		},
		{
			"bufferView":183,
			"componentType":5126,
			"count":1984,
			"max":[
				-20.700000762939453,
				0.642072319984436,
				-23.700000762939453
			],
			"min":[
				-21.299999237060547,
				0.042072415351867676,
				-24.299999237060547
			],
			"type":"VEC3"
		},
		{
			"bufferView":184,
			"componentType":5126,
			"count":1984,
			"type":"VEC3"
		},
		{
			"bufferView":185,
			"componentType":5126,
			"count":1984,
			"type":"VEC2"
		},
		{
			"bufferView":186,
			"componentType":5126,
			"count":1984,
			"type":"VEC2"
		},
		{
			"bufferView":187,
			"componentType":5126,
			"count":1984,
			"max":[
				-8.699999809265137,
				0.642072319984436,
				-23.700000762939453
			],
			"min":[
				-9.299999237060547,
				0.042072415351867676,
				-24.299999237060547
			],
			"type":"VEC3"
		},
		{
			"bufferView":188,
			"componentType":5126,
			"count":1984,
			"type":"VEC3"
		},
		{
			"bufferView":189,
			"componentType":5126,
			"count":1984,
			"type":"VEC2"
		},
		{
			"bufferView":190,
			"componentType":5126,
			"count":1984,
			"type":"VEC2"
		},
		{
			"bufferView":191,
			"componentType":5126,
			"count":1984,
			"max":[
				-8.699999809265137,
				0.642072319984436,
				-35.70000076293945
			],
			"min":[
				-9.299999237060547,
				0.042072415351867676,
				-36.29999923706055
			],
			"type":"VEC3"
		},
		{
			"bufferView":192,
			"componentType":5126,
			"count":1984,
			"type":"VEC3"
		},
		{
			"bufferView":193,
			"componentType":5126,
			"count":1984,
			"type":"VEC2"
		},
		{
			"bufferView":194,
			"componentType":5126,
			"count":1984,
			"type":"VEC2"
		},
		{
			"bufferView":195,
			"componentType":5123,
			"count":2880,
			"type":"SCALAR"
		},
		{
			"bufferView":196,
			"componentType":5126,
			"count":1984,
			"max":[
				2.299999952316284,
				0.642072319984436,
				-35.70000076293945
			],
			"min":[
				1.700000286102295,
				0.042072415351867676,
				-36.29999923706055
			],
			"type":"VEC3"
		},
		{
			"bufferView":197,
			"componentType":5126,
			"count":1984,
			"type":"VEC3"
		},
		{
			"bufferView":198,
			"componentType":5126,
			"count":1984,
			"type":"VEC2"
		},
		{
			"bufferView":199,
			"componentType":5126,
			"count":1984,
			"type":"VEC2"
		},
		{
			"bufferView":200,
			"componentType":5123,
			"count":2880,
			"type":"SCALAR"
		},
		{
			"bufferView":201,
			"componentType":5126,
			"count":1984,
			"max":[
				2.299999952316284,
				0.642072319984436,
				-29.700000762939453
			],
			"min":[
				1.700000286102295,
				0.042072415351867676,
				-30.299999237060547
			],
			"type":"VEC3"
		},
		{
			"bufferView":202,
			"componentType":5126,
			"count":1984,
			"type":"VEC3"
		},
		{
			"bufferView":203,
			"componentType":5126,
			"count":1984,
			"type":"VEC2"
		},
		{
			"bufferView":204,
			"componentType":5126,
			"count":1984,
			"type":"VEC2"
		},
		{
			"bufferView":205,
			"componentType":5126,
			"count":1984,
			"max":[
				-2.700000047683716,
				0.642072319984436,
				-29.700000762939453
			],
			"min":[
				-3.299999713897705,
				0.042072415351867676,
				-30.299999237060547
			],
			"type":"VEC3"
		},
		{
			"bufferView":206,
			"componentType":5126,
			"count":1984,
			"type":"VEC3"
		},
		{
			"bufferView":207,
			"componentType":5126,
			"count":1984,
			"type":"VEC2"
		},
		{
			"bufferView":208,
			"componentType":5126,
			"count":1984,
			"type":"VEC2"
		},
		{
			"bufferView":209,
			"componentType":5126,
			"count":1984,
			"max":[
				-19.700000762939453,
				0.642072319984436,
				18.299999237060547
			],
			"min":[
				-20.299999237060547,
				0.042072415351867676,
				17.700000762939453
			],
			"type":"VEC3"
		},
		{
			"bufferView":210,
			"componentType":5126,
			"count":1984,
			"type":"VEC3"
		},
		{
			"bufferView":211,
			"componentType":5126,
			"count":1984,
			"type":"VEC2"
		},
		{
			"bufferView":212,
			"componentType":5126,
			"count":1984,
			"type":"VEC2"
		},
		{
			"bufferView":213,
			"componentType":5126,
			"count":1984,
			"max":[
				-2.700000047683716,
				0.642072319984436,
				12.300000190734863
			],
			"min":[
				-3.299999713897705,
				0.042072415351867676,
				11.699999809265137
			],
			"type":"VEC3"
		},
		{
			"bufferView":214,
			"componentType":5126,
			"count":1984,
			"type":"VEC3"
		},
		{
			"bufferView":215,
			"componentType":5126,
			"count":1984,
			"type":"VEC2"
		},
		{
			"bufferView":216,
			"componentType":5126,
			"count":1984,
			"type":"VEC2"
		},
		{
			"bufferView":217,
			"componentType":5126,
			"count":1984,
			"max":[
				3.299999952316284,
				0.642072319984436,
				6.299999713897705
			],
			"min":[
				2.700000286102295,
				0.042072415351867676,
				5.699999809265137
			],
			"type":"VEC3"
		},
		{
			"bufferView":218,
			"componentType":5126,
			"count":1984,
			"type":"VEC3"
		},
		{
			"bufferView":219,
			"componentType":5126,
			"count":1984,
			"type":"VEC2"
		},
		{
			"bufferView":220,
			"componentType":5126,
			"count":1984,
			"type":"VEC2"
		},
		{
			"bufferView":221,
			"componentType":5126,
			"count":1984,
			"max":[
				23.299999237060547,
				0.642072319984436,
				-29.700000762939453
			],
			"min":[
				22.700000762939453,
				0.042072415351867676,
				-30.299999237060547
			],
			"type":"VEC3"
		},
		{
			"bufferView":222,
			"componentType":5126,
			"count":1984,
			"type":"VEC3"
		},
		{
			"bufferView":223,
			"componentType":5126,
			"count":1984,
			"type":"VEC2"
		},
		{
			"bufferView":224,
			"componentType":5126,
			"count":1984,
			"type":"VEC2"
		},
		{
			"bufferView":225,
			"componentType":5126,
			"count":1984,
			"max":[
				27.299999237060547,
				0.642072319984436,
				-47.70000076293945
			],
			"min":[
				26.700000762939453,
				0.042072415351867676,
				-48.29999923706055
			],
			"type":"VEC3"
		},
		{
			"bufferView":226,
			"componentType":5126,
			"count":1984,
			"type":"VEC3"
		},
		{
			"bufferView":227,
			"componentType":5126,
			"count":1984,
			"type":"VEC2"
		},
		{
			"bufferView":228,
			"componentType":5126,
			"count":1984,
			"type":"VEC2"
		},
		{
			"bufferView":229,
			"componentType":5123,
			"count":2880,
			"type":"SCALAR"
		},
		{
			"bufferView":230,
			"componentType":5126,
			"count":1984,
			"max":[
				23.299999237060547,
				0.642072319984436,
				-35.70000076293945
			],
			"min":[
				22.700000762939453,
				0.042072415351867676,
				-36.29999923706055
			],
			"type":"VEC3"
		},
		{
			"bufferView":231,
			"componentType":5126,
			"count":1984,
			"type":"VEC3"
		},
		{
			"bufferView":232,
			"componentType":5126,
			"count":1984,
			"type":"VEC2"
		},
		{
			"bufferView":233,
			"componentType":5126,
			"count":1984,
			"type":"VEC2"
		},
		{
			"bufferView":234,
			"componentType":5126,
			"count":1984,
			"max":[
				2.299999952316284,
				0.642072319984436,
				-41.70000076293945
			],
			"min":[
				1.700000286102295,
				0.042072415351867676,
				-42.29999923706055
			],
			"type":"VEC3"
		},
		{
			"bufferView":235,
			"componentType":5126,
			"count":1984,
			"type":"VEC3"
		},
		{
			"bufferView":236,
			"componentType":5126,
			"count":1984,
			"type":"VEC2"
		},
		{
			"bufferView":237,
			"componentType":5126,
			"count":1984,
			"type":"VEC2"
		},
		{
			"bufferView":238,
			"componentType":5123,
			"count":2880,
			"type":"SCALAR"
		},
		{
			"bufferView":239,
			"componentType":5126,
			"count":1984,
			"max":[
				2.299999952316284,
				0.642072319984436,
				-47.70000076293945
			],
			"min":[
				1.700000286102295,
				0.042072415351867676,
				-48.29999923706055
			],
			"type":"VEC3"
		},
		{
			"bufferView":240,
			"componentType":5126,
			"count":1984,
			"type":"VEC3"
		},
		{
			"bufferView":241,
			"componentType":5126,
			"count":1984,
			"type":"VEC2"
		},
		{
			"bufferView":242,
			"componentType":5126,
			"count":1984,
			"type":"VEC2"
		},
		{
			"bufferView":243,
			"componentType":5123,
			"count":2880,
			"type":"SCALAR"
		},
		{
			"bufferView":244,
			"componentType":5126,
			"count":1984,
			"max":[
				17.299999237060547,
				0.642072319984436,
				-47.70000076293945
			],
			"min":[
				16.700000762939453,
				0.042072415351867676,
				-48.29999923706055
			],
			"type":"VEC3"
		},
		{
			"bufferView":245,
			"componentType":5126,
			"count":1984,
			"type":"VEC3"
		},
		{
			"bufferView":246,
			"componentType":5126,
			"count":1984,
			"type":"VEC2"
		},
		{
			"bufferView":247,
			"componentType":5126,
			"count":1984,
			"type":"VEC2"
		},
		{
			"bufferView":248,
			"componentType":5123,
			"count":2880,
			"type":"SCALAR"
		},
		{
			"bufferView":249,
			"componentType":5126,
			"count":1984,
			"max":[
				8.300000190734863,
				0.642072319984436,
				-47.70000076293945
			],
			"min":[
				7.700000286102295,
				0.042072415351867676,
				-48.29999923706055
			],
			"type":"VEC3"
		},
		{
			"bufferView":250,
			"componentType":5126,
			"count":1984,
			"type":"VEC3"
		},
		{
			"bufferView":251,
			"componentType":5126,
			"count":1984,
			"type":"VEC2"
		},
		{
			"bufferView":252,
			"componentType":5126,
			"count":1984,
			"type":"VEC2"
		},
		{
			"bufferView":253,
			"componentType":5123,
			"count":2880,
			"type":"SCALAR"
		},
		{
			"bufferView":254,
			"componentType":5126,
			"count":1984,
			"max":[
				17.299999237060547,
				0.642072319984436,
				-41.70000076293945
			],
			"min":[
				16.700000762939453,
				0.042072415351867676,
				-42.29999923706055
			],
			"type":"VEC3"
		},
		{
			"bufferView":255,
			"componentType":5126,
			"count":1984,
			"type":"VEC3"
		},
		{
			"bufferView":256,
			"componentType":5126,
			"count":1984,
			"type":"VEC2"
		},
		{
			"bufferView":257,
			"componentType":5126,
			"count":1984,
			"type":"VEC2"
		},
		{
			"bufferView":258,
			"componentType":5126,
			"count":1984,
			"max":[
				27.299999237060547,
				0.642072319984436,
				-41.70000076293945
			],
			"min":[
				26.700000762939453,
				0.042072415351867676,
				-42.29999923706055
			],
			"type":"VEC3"
		},
		{
			"bufferView":259,
			"componentType":5126,
			"count":1984,
			"type":"VEC3"
		},
		{
			"bufferView":260,
			"componentType":5126,
			"count":1984,
			"type":"VEC2"
		},
		{
			"bufferView":261,
			"componentType":5126,
			"count":1984,
			"type":"VEC2"
		},
		{
			"bufferView":262,
			"componentType":5126,
			"count":1984,
			"max":[
				8.300000190734863,
				0.642072319984436,
				-41.70000076293945
			],
			"min":[
				7.700000286102295,
				0.042072415351867676,
				-42.29999923706055
			],
			"type":"VEC3"
		},
		{
			"bufferView":263,
			"componentType":5126,
			"count":1984,
			"type":"VEC3"
		},
		{
			"bufferView":264,
			"componentType":5126,
			"count":1984,
			"type":"VEC2"
		},
		{
			"bufferView":265,
			"componentType":5126,
			"count":1984,
			"type":"VEC2"
		},
		{
			"bufferView":266,
			"componentType":5123,
			"count":2880,
			"type":"SCALAR"
		},
		{
			"bufferView":267,
			"componentType":5126,
			"count":1984,
			"max":[
				8.300000190734863,
				0.642072319984436,
				-35.70000076293945
			],
			"min":[
				7.700000286102295,
				0.042072415351867676,
				-36.29999923706055
			],
			"type":"VEC3"
		},
		{
			"bufferView":268,
			"componentType":5126,
			"count":1984,
			"type":"VEC3"
		},
		{
			"bufferView":269,
			"componentType":5126,
			"count":1984,
			"type":"VEC2"
		},
		{
			"bufferView":270,
			"componentType":5126,
			"count":1984,
			"type":"VEC2"
		},
		{
			"bufferView":271,
			"componentType":5123,
			"count":2880,
			"type":"SCALAR"
		},
		{
			"bufferView":272,
			"componentType":5126,
			"count":1984,
			"max":[
				17.299999237060547,
				0.642072319984436,
				-35.70000076293945
			],
			"min":[
				16.700000762939453,
				0.042072415351867676,
				-36.29999923706055
			],
			"type":"VEC3"
		},
		{
			"bufferView":273,
			"componentType":5126,
			"count":1984,
			"type":"VEC3"
		},
		{
			"bufferView":274,
			"componentType":5126,
			"count":1984,
			"type":"VEC2"
		},
		{
			"bufferView":275,
			"componentType":5126,
			"count":1984,
			"type":"VEC2"
		},
		{
			"bufferView":276,
			"componentType":5126,
			"count":1984,
			"max":[
				21.299999237060547,
				0.642072319984436,
				-23.700000762939453
			],
			"min":[
				20.700000762939453,
				0.042072415351867676,
				-24.299999237060547
			],
			"type":"VEC3"
		},
		{
			"bufferView":277,
			"componentType":5126,
			"count":1984,
			"type":"VEC3"
		},
		{
			"bufferView":278,
			"componentType":5126,
			"count":1984,
			"type":"VEC2"
		},
		{
			"bufferView":279,
			"componentType":5126,
			"count":1984,
			"type":"VEC2"
		},
		{
			"bufferView":280,
			"componentType":5126,
			"count":1984,
			"max":[
				-5.700000286102295,
				0.642072319984436,
				-47.70000076293945
			],
			"min":[
				-6.299999713897705,
				0.042072415351867676,
				-48.29999923706055
			],
			"type":"VEC3"
		},
		{
			"bufferView":281,
			"componentType":5126,
			"count":1984,
			"type":"VEC3"
		},
		{
			"bufferView":282,
			"componentType":5126,
			"count":1984,
			"type":"VEC2"
		},
		{
			"bufferView":283,
			"componentType":5126,
			"count":1984,
			"type":"VEC2"
		},
		{
			"bufferView":284,
			"componentType":5126,
			"count":1984,
			"max":[
				-14.699999809265137,
				0.642072319984436,
				-47.70000076293945
			],
			"min":[
				-15.299999237060547,
				0.042072415351867676,
				-48.29999923706055
			],
			"type":"VEC3"
		},
		{
			"bufferView":285,
			"componentType":5126,
			"count":1984,
			"type":"VEC3"
		},
		{
			"bufferView":286,
			"componentType":5126,
			"count":1984,
			"type":"VEC2"
		},
		{
			"bufferView":287,
			"componentType":5126,
			"count":1984,
			"type":"VEC2"
		},
		{
			"bufferView":288,
			"componentType":5123,
			"count":2880,
			"type":"SCALAR"
		},
		{
			"bufferView":289,
			"componentType":5126,
			"count":1984,
			"max":[
				-26.700000762939453,
				0.642072319984436,
				-47.70000076293945
			],
			"min":[
				-27.299999237060547,
				0.042072415351867676,
				-48.29999923706055
			],
			"type":"VEC3"
		},
		{
			"bufferView":290,
			"componentType":5126,
			"count":1984,
			"type":"VEC3"
		},
		{
			"bufferView":291,
			"componentType":5126,
			"count":1984,
			"type":"VEC2"
		},
		{
			"bufferView":292,
			"componentType":5126,
			"count":1984,
			"type":"VEC2"
		},
		{
			"bufferView":293,
			"componentType":5126,
			"count":1984,
			"max":[
				-26.700000762939453,
				0.642072319984436,
				-41.70000076293945
			],
			"min":[
				-27.299999237060547,
				0.042072415351867676,
				-42.29999923706055
			],
			"type":"VEC3"
		},
		{
			"bufferView":294,
			"componentType":5126,
			"count":1984,
			"type":"VEC3"
		},
		{
			"bufferView":295,
			"componentType":5126,
			"count":1984,
			"type":"VEC2"
		},
		{
			"bufferView":296,
			"componentType":5126,
			"count":1984,
			"type":"VEC2"
		},
		{
			"bufferView":297,
			"componentType":5126,
			"count":1984,
			"max":[
				-14.699999809265137,
				0.642072319984436,
				-41.70000076293945
			],
			"min":[
				-15.299999237060547,
				0.042072415351867676,
				-42.29999923706055
			],
			"type":"VEC3"
		},
		{
			"bufferView":298,
			"componentType":5126,
			"count":1984,
			"type":"VEC3"
		},
		{
			"bufferView":299,
			"componentType":5126,
			"count":1984,
			"type":"VEC2"
		},
		{
			"bufferView":300,
			"componentType":5126,
			"count":1984,
			"type":"VEC2"
		},
		{
			"bufferView":301,
			"componentType":5123,
			"count":2880,
			"type":"SCALAR"
		},
		{
			"bufferView":302,
			"componentType":5126,
			"count":1984,
			"max":[
				-26.700000762939453,
				0.642072319984436,
				-29.700000762939453
			],
			"min":[
				-27.299999237060547,
				0.042072415351867676,
				-30.299999237060547
			],
			"type":"VEC3"
		},
		{
			"bufferView":303,
			"componentType":5126,
			"count":1984,
			"type":"VEC3"
		},
		{
			"bufferView":304,
			"componentType":5126,
			"count":1984,
			"type":"VEC2"
		},
		{
			"bufferView":305,
			"componentType":5126,
			"count":1984,
			"type":"VEC2"
		},
		{
			"bufferView":306,
			"componentType":5126,
			"count":1984,
			"max":[
				11.300000190734863,
				0.642072319984436,
				18.299999237060547
			],
			"min":[
				10.700000762939453,
				0.042072415351867676,
				17.700000762939453
			],
			"type":"VEC3"
		},
		{
			"bufferView":307,
			"componentType":5126,
			"count":1984,
			"type":"VEC3"
		},
		{
			"bufferView":308,
			"componentType":5126,
			"count":1984,
			"type":"VEC2"
		},
		{
			"bufferView":309,
			"componentType":5126,
			"count":1984,
			"type":"VEC2"
		}
	],
	"bufferViews":[
		{
			"buffer":0,
			"byteLength":23808,
			"byteOffset":0,
			"target":34962
		},
		{
			"buffer":0,
			"byteLength":23808,
			"byteOffset":23808,
			"target":34962
		},
		{
			"buffer":0,
			"byteLength":15872,
			"byteOffset":47616,
			"target":34962
		},
		{
			"buffer":0,
			"byteLength":15872,
			"byteOffset":63488,
			"target":34962
		},
		{
			"buffer":0,
			"byteLength":5760,
			"byteOffset":79360,
			"target":34963
		},
		{
			"buffer":0,
			"byteLength":23808,
			"byteOffset":85120,
			"target":34962
		},
		{
			"buffer":0,
			"byteLength":23808,
			"byteOffset":108928,
			"target":34962
		},
		{
			"buffer":0,
			"byteLength":15872,
			"byteOffset":132736,
			"target":34962
		},
		{
			"buffer":0,
			"byteLength":15872,
			"byteOffset":148608,
			"target":34962
		},
		{
			"buffer":0,
			"byteLength":5760,
			"byteOffset":164480,
			"target":34963
		},
		{
			"buffer":0,
			"byteLength":23808,
			"byteOffset":170240,
			"target":34962
		},
		{
			"buffer":0,
			"byteLength":23808,
			"byteOffset":194048,
			"target":34962
		},
		{
			"buffer":0,
			"byteLength":15872,
			"byteOffset":217856,
			"target":34962
		},
		{
			"buffer":0,
			"byteLength":15872,
			"byteOffset":233728,
			"target":34962
		},
		{
			"buffer":0,
			"byteLength":5760,
			"byteOffset":249600,
			"target":34963
		},
		{
			"buffer":0,
			"byteLength":23808,
			"byteOffset":255360,
			"target":34962
		},
		{
			"buffer":0,
			"byteLength":23808,
			"byteOffset":279168,
			"target":34962
		},
		{
			"buffer":0,
			"byteLength":15872,
			"byteOffset":302976,
			"target":34962
		},
		{
			"buffer":0,
			"byteLength":15872,
			"byteOffset":318848,
			"target":34962
		},
		{
			"buffer":0,
			"byteLength":5760,
			"byteOffset":334720,
			"target":34963
		},
		{
			"buffer":0,
			"byteLength":23808,
			"byteOffset":340480,
			"target":34962
		},
		{
			"buffer":0,
			"byteLength":23808,
			"byteOffset":364288,
			"target":34962
		},
		{
			"buffer":0,
			"byteLength":15872,
			"byteOffset":388096,
			"target":34962
		},
		{
			"buffer":0,
			"byteLength":15872,
			"byteOffset":403968,
			"target":34962
		},
		{
			"buffer":0,
			"byteLength":5760,
			"byteOffset":419840,
			"target":34963
		},
		{
			"buffer":0,
			"byteLength":23808,
			"byteOffset":425600,
			"target":34962
		},
		{
			"buffer":0,
			"byteLength":23808,
			"byteOffset":449408,
			"target":34962
		},
		{
			"buffer":0,
			"byteLength":15872,
			"byteOffset":473216,
			"target":34962
		},
		{
			"buffer":0,
			"byteLength":15872,
			"byteOffset":489088,
			"target":34962
		},
		{
			"buffer":0,
			"byteLength":5760,
			"byteOffset":504960,
			"target":34963
		},
		{
			"buffer":0,
			"byteLength":23808,
			"byteOffset":510720,
			"target":34962
		},
		{
			"buffer":0,
			"byteLength":23808,
			"byteOffset":534528,
			"target":34962
		},
		{
			"buffer":0,
			"byteLength":15872,
			"byteOffset":558336,
			"target":34962
		},
		{
			"buffer":0,
			"byteLength":15872,
			"byteOffset":574208,
			"target":34962
		},
		{
			"buffer":0,
			"byteLength":5760,
			"byteOffset":590080,
			"target":34963
		},
		{
			"buffer":0,
			"byteLength":23808,
			"byteOffset":595840,
			"target":34962
		},
		{
			"buffer":0,
			"byteLength":23808,
			"byteOffset":619648,
			"target":34962
		},
		{
			"buffer":0,
			"byteLength":15872,
			"byteOffset":643456,
			"target":34962
		},
		{
			"buffer":0,
			"byteLength":15872,
			"byteOffset":659328,
			"target":34962
		},
		{
			"buffer":0,
			"byteLength":5760,
			"byteOffset":675200,
			"target":34963
		},
		{
			"buffer":0,
			"byteLength":23808,
			"byteOffset":680960,
			"target":34962
		},
		{
			"buffer":0,
			"byteLength":23808,
			"byteOffset":704768,
			"target":34962
		},
		{
			"buffer":0,
			"byteLength":15872,
			"byteOffset":728576,
			"target":34962
		},
		{
			"buffer":0,
			"byteLength":15872,
			"byteOffset":744448,
			"target":34962
		},
		{
			"buffer":0,
			"byteLength":23808,
			"byteOffset":760320,
			"target":34962
		},
		{
			"buffer":0,
			"byteLength":23808,
			"byteOffset":784128,
			"target":34962
		},
		{
			"buffer":0,
			"byteLength":15872,
			"byteOffset":807936,
			"target":34962
		},
		{
			"buffer":0,
			"byteLength":15872,
			"byteOffset":823808,
			"target":34962
		},
		{
			"buffer":0,
			"byteLength":23808,
			"byteOffset":839680,
			"target":34962
		},
		{
			"buffer":0,
			"byteLength":23808,
			"byteOffset":863488,
			"target":34962
		},
		{
			"buffer":0,
			"byteLength":15872,
			"byteOffset":887296,
			"target":34962
		},
		{
			"buffer":0,
			"byteLength":15872,
			"byteOffset":903168,
			"target":34962
		},
		{
			"buffer":0,
			"byteLength":5760,
			"byteOffset":919040,
			"target":34963
		},
		{
			"buffer":0,
			"byteLength":23808,
			"byteOffset":924800,
			"target":34962
		},
		{
			"buffer":0,
			"byteLength":23808,
			"byteOffset":948608,
			"target":34962
		},
		{
			"buffer":0,
			"byteLength":15872,
			"byteOffset":972416,
			"target":34962
		},
		{
			"buffer":0,
			"byteLength":15872,
			"byteOffset":988288,
			"target":34962
		},
		{
			"buffer":0,
			"byteLength":23808,
			"byteOffset":1004160,
			"target":34962
		},
		{
			"buffer":0,
			"byteLength":23808,
			"byteOffset":1027968,
			"target":34962
		},
		{
			"buffer":0,
			"byteLength":15872,
			"byteOffset":1051776,
			"target":34962
		},
		{
			"buffer":0,
			"byteLength":15872,
			"byteOffset":1067648,
			"target":34962
		},
		{
			"buffer":0,
			"byteLength":23808,
			"byteOffset":1083520,
			"target":34962
		},
		{
			"buffer":0,
			"byteLength":23808,
			"byteOffset":1107328,
			"target":34962
		},
		{
			"buffer":0,
			"byteLength":15872,
			"byteOffset":1131136,
			"target":34962
		},
		{
			"buffer":0,
			"byteLength":15872,
			"byteOffset":1147008,
			"target":34962
		},
		{
			"buffer":0,
			"byteLength":23808,
			"byteOffset":1162880,
			"target":34962
		},
		{
			"buffer":0,
			"byteLength":23808,
			"byteOffset":1186688,
			"target":34962
		},
		{
			"buffer":0,
			"byteLength":15872,
			"byteOffset":1210496,
			"target":34962
		},
		{
			"buffer":0,
			"byteLength":15872,
			"byteOffset":1226368,
			"target":34962
		},
		{
			"buffer":0,
			"byteLength":23808,
			"byteOffset":1242240,
			"target":34962
		},
		{
			"buffer":0,
			"byteLength":23808,
			"byteOffset":1266048,
			"target":34962
		},
		{
			"buffer":0,
			"byteLength":15872,
			"byteOffset":1289856,
			"target":34962
		},
		{
			"buffer":0,
			"byteLength":15872,
			"byteOffset":1305728,
			"target":34962
		},
		{
			"buffer":0,
			"byteLength":23808,
			"byteOffset":1321600,
			"target":34962
		},
		{
			"buffer":0,
			"byteLength":23808,
			"byteOffset":1345408,
			"target":34962
		},
		{
			"buffer":0,
			"byteLength":15872,
			"byteOffset":1369216,
			"target":34962
		},
		{
			"buffer":0,
			"byteLength":15872,
			"byteOffset":1385088,
			"target":34962
		},
		{
			"buffer":0,
			"byteLength":23808,
			"byteOffset":1400960,
			"target":34962
		},
		{
			"buffer":0,
			"byteLength":23808,
			"byteOffset":1424768,
			"target":34962
		},
		{
			"buffer":0,
			"byteLength":15872,
			"byteOffset":1448576,
			"target":34962
		},
		{
			"buffer":0,
			"byteLength":15872,
			"byteOffset":1464448,
			"target":34962
		},
		{
			"buffer":0,
			"byteLength":5760,
			"byteOffset":1480320,
			"target":34963
		},
		{
			"buffer":0,
			"byteLength":23808,
			"byteOffset":1486080,
			"target":34962
		},
		{
			"buffer":0,
			"byteLength":23808,
			"byteOffset":1509888,
			"target":34962
		},
		{
			"buffer":0,
			"byteLength":15872,
			"byteOffset":1533696,
			"target":34962
		},
		{
			"buffer":0,
			"byteLength":15872,
			"byteOffset":1549568,
			"target":34962
		},
		{
			"buffer":0,
			"byteLength":23808,
			"byteOffset":1565440,
			"target":34962
		},
		{
			"buffer":0,
			"byteLength":23808,
			"byteOffset":1589248,
			"target":34962
		},
		{
			"buffer":0,
			"byteLength":15872,
			"byteOffset":1613056,
			"target":34962
		},
		{
			"buffer":0,
			"byteLength":15872,
			"byteOffset":1628928,
			"target":34962
		},
		{
			"buffer":0,
			"byteLength":5760,
			"byteOffset":1644800,
			"target":34963
		},
		{
			"buffer":0,
			"byteLength":23808,
			"byteOffset":1650560,
			"target":34962
		},
		{
			"buffer":0,
			"byteLength":23808,
			"byteOffset":1674368,
			"target":34962
		},
		{
			"buffer":0,
			"byteLength":15872,
			"byteOffset":1698176,
			"target":34962
		},
		{
			"buffer":0,
			"byteLength":15872,
			"byteOffset":1714048,
			"target":34962
		},
		{
			"buffer":0,
			"byteLength":5760,
			"byteOffset":1729920,
			"target":34963
		},
		{
			"buffer":0,
			"byteLength":23808,
			"byteOffset":1735680,
			"target":34962
		},
		{
			"buffer":0,
			"byteLength":23808,
			"byteOffset":1759488,
			"target":34962
		},
		{
			"buffer":0,
			"byteLength":15872,
			"byteOffset":1783296,
			"target":34962
		},
		{
			"buffer":0,
			"byteLength":15872,
			"byteOffset":1799168,
			"target":34962
		},
		{
			"buffer":0,
			"byteLength":5760,
			"byteOffset":1815040,
			"target":34963
		},
		{
			"buffer":0,
			"byteLength":23808,
			"byteOffset":1820800,
			"target":34962
		},
		{
			"buffer":0,
			"byteLength":23808,
			"byteOffset":1844608,
			"target":34962
		},
		{
			"buffer":0,
			"byteLength":15872,
			"byteOffset":1868416,
			"target":34962
		},
		{
			"buffer":0,
			"byteLength":15872,
			"byteOffset":1884288,
			"target":34962
		},
		{
			"buffer":0,
			"byteLength":23808,
			"byteOffset":1900160,
			"target":34962
		},
		{
			"buffer":0,
			"byteLength":23808,
			"byteOffset":1923968,
			"target":34962
		},
		{
			"buffer":0,
			"byteLength":15872,
			"byteOffset":1947776,
			"target":34962
		},
		{
			"buffer":0,
			"byteLength":15872,
			"byteOffset":1963648,
			"target":34962
		},
		{
			"buffer":0,
			"byteLength":23808,
			"byteOffset":1979520,
			"target":34962
		},
		{
			"buffer":0,
			"byteLength":23808,
			"byteOffset":2003328,
			"target":34962
		},
		{
			"buffer":0,
			"byteLength":15872,
			"byteOffset":2027136,
			"target":34962
		},
		{
			"buffer":0,
			"byteLength":15872,
			"byteOffset":2043008,
			"target":34962
		},
		{
			"buffer":0,
			"byteLength":5760,
			"byteOffset":2058880,
			"target":34963
		},
		{
			"buffer":0,
			"byteLength":23808,
			"byteOffset":2064640,
			"target":34962
		},
		{
			"buffer":0,
			"byteLength":23808,
			"byteOffset":2088448,
			"target":34962
		},
		{
			"buffer":0,
			"byteLength":15872,
			"byteOffset":2112256,
			"target":34962
		},
		{
			"buffer":0,
			"byteLength":15872,
			"byteOffset":2128128,
			"target":34962
		},
		{
			"buffer":0,
			"byteLength":23808,
			"byteOffset":2144000,
			"target":34962
		},
		{
			"buffer":0,
			"byteLength":23808,
			"byteOffset":2167808,
			"target":34962
		},
		{
			"buffer":0,
			"byteLength":15872,
			"byteOffset":2191616,
			"target":34962
		},
		{
			"buffer":0,
			"byteLength":15872,
			"byteOffset":2207488,
			"target":34962
		},
		{
			"buffer":0,
			"byteLength":23808,
			"byteOffset":2223360,
			"target":34962
		},
		{
			"buffer":0,
			"byteLength":23808,
			"byteOffset":2247168,
			"target":34962
		},
		{
			"buffer":0,
			"byteLength":15872,
			"byteOffset":2270976,
			"target":34962
		},
		{
			"buffer":0,
			"byteLength":15872,
			"byteOffset":2286848,
			"target":34962
		},
		{
			"buffer":0,
			"byteLength":23808,
			"byteOffset":2302720,
			"target":34962
		},
		{
			"buffer":0,
			"byteLength":23808,
			"byteOffset":2326528,
			"target":34962
		},
		{
			"buffer":0,
			"byteLength":15872,
			"byteOffset":2350336,
			"target":34962
		},
		{
			"buffer":0,
			"byteLength":15872,
			"byteOffset":2366208,
			"target":34962
		},
		{
			"buffer":0,
			"byteLength":23808,
			"byteOffset":2382080,
			"target":34962
		},
		{
			"buffer":0,
			"byteLength":23808,
			"byteOffset":2405888,
			"target":34962
		},
		{
			"buffer":0,
			"byteLength":15872,
			"byteOffset":2429696,
			"target":34962
		},
		{
			"buffer":0,
			"byteLength":15872,
			"byteOffset":2445568,
			"target":34962
		},
		{
			"buffer":0,
			"byteLength":23808,
			"byteOffset":2461440,
			"target":34962
		},
		{
			"buffer":0,
			"byteLength":23808,
			"byteOffset":2485248,
			"target":34962
		},
		{
			"buffer":0,
			"byteLength":15872,
			"byteOffset":2509056,
			"target":34962
		},
		{
			"buffer":0,
			"byteLength":15872,
			"byteOffset":2524928,
			"target":34962
		},
		{
			"buffer":0,
			"byteLength":23808,
			"byteOffset":2540800,
			"target":34962
		},
		{
			"buffer":0,
			"byteLength":23808,
			"byteOffset":2564608,
			"target":34962
		},
		{
			"buffer":0,
			"byteLength":15872,
			"byteOffset":2588416,
			"target":34962
		},
		{
			"buffer":0,
			"byteLength":15872,
			"byteOffset":2604288,
			"target":34962
		},
		{
			"buffer":0,
			"byteLength":23808,
			"byteOffset":2620160,
			"target":34962
		},
		{
			"buffer":0,
			"byteLength":23808,
			"byteOffset":2643968,
			"target":34962
		},
		{
			"buffer":0,
			"byteLength":15872,
			"byteOffset":2667776,
			"target":34962
		},
		{
			"buffer":0,
			"byteLength":15872,
			"byteOffset":2683648,
			"target":34962
		},
		{
			"buffer":0,
			"byteLength":5760,
			"byteOffset":2699520,
			"target":34963
		},
		{
			"buffer":0,
			"byteLength":23808,
			"byteOffset":2705280,
			"target":34962
		},
		{
			"buffer":0,
			"byteLength":23808,
			"byteOffset":2729088,
			"target":34962
		},
		{
			"buffer":0,
			"byteLength":15872,
			"byteOffset":2752896,
			"target":34962
		},
		{
			"buffer":0,
			"byteLength":15872,
			"byteOffset":2768768,
			"target":34962
		},
		{
			"buffer":0,
			"byteLength":5760,
			"byteOffset":2784640,
			"target":34963
		},
		{
			"buffer":0,
			"byteLength":23808,
			"byteOffset":2790400,
			"target":34962
		},
		{
			"buffer":0,
			"byteLength":23808,
			"byteOffset":2814208,
			"target":34962
		},
		{
			"buffer":0,
			"byteLength":15872,
			"byteOffset":2838016,
			"target":34962
		},
		{
			"buffer":0,
			"byteLength":15872,
			"byteOffset":2853888,
			"target":34962
		},
		{
			"buffer":0,
			"byteLength":5760,
			"byteOffset":2869760,
			"target":34963
		},
		{
			"buffer":0,
			"byteLength":23808,
			"byteOffset":2875520,
			"target":34962
		},
		{
			"buffer":0,
			"byteLength":23808,
			"byteOffset":2899328,
			"target":34962
		},
		{
			"buffer":0,
			"byteLength":15872,
			"byteOffset":2923136,
			"target":34962
		},
		{
			"buffer":0,
			"byteLength":15872,
			"byteOffset":2939008,
			"target":34962
		},
		{
			"buffer":0,
			"byteLength":23808,
			"byteOffset":2954880,
			"target":34962
		},
		{
			"buffer":0,
			"byteLength":23808,
			"byteOffset":2978688,
			"target":34962
		},
		{
			"buffer":0,
			"byteLength":15872,
			"byteOffset":3002496,
			"target":34962
		},
		{
			"buffer":0,
			"byteLength":15872,
			"byteOffset":3018368,
			"target":34962
		},
		{
			"buffer":0,
			"byteLength":5760,
			"byteOffset":3034240,
			"target":34963
		},
		{
			"buffer":0,
			"byteLength":23808,
			"byteOffset":3040000,
			"target":34962
		},
		{
			"buffer":0,
			"byteLength":23808,
			"byteOffset":3063808,
			"target":34962
		},
		{
			"buffer":0,
			"byteLength":15872,
			"byteOffset":3087616,
			"target":34962
		},
		{
			"buffer":0,
			"byteLength":15872,
			"byteOffset":3103488,
			"target":34962
		},
		{
			"buffer":0,
			"byteLength":23808,
			"byteOffset":3119360,
			"target":34962
		},
		{
			"buffer":0,
			"byteLength":23808,
			"byteOffset":3143168,
			"target":34962
		},
		{
			"buffer":0,
			"byteLength":15872,
			"byteOffset":3166976,
			"target":34962
		},
		{
			"buffer":0,
			"byteLength":15872,
			"byteOffset":3182848,
			"target":34962
		},
		{
			"buffer":0,
			"byteLength":23808,
			"byteOffset":3198720,
			"target":34962
		},
		{
			"buffer":0,
			"byteLength":23808,
			"byteOffset":3222528,
			"target":34962
		},
		{
			"buffer":0,
			"byteLength":15872,
			"byteOffset":3246336,
			"target":34962
		},
		{
			"buffer":0,
			"byteLength":15872,
			"byteOffset":3262208,
			"target":34962
		},
		{
			"buffer":0,
			"byteLength":23808,
			"byteOffset":3278080,
			"target":34962
		},
		{
			"buffer":0,
			"byteLength":23808,
			"byteOffset":3301888,
			"target":34962
		},
		{
			"buffer":0,
			"byteLength":15872,
			"byteOffset":3325696,
			"target":34962
		},
		{
			"buffer":0,
			"byteLength":15872,
			"byteOffset":3341568,
			"target":34962
		},
		{
			"buffer":0,
			"byteLength":5760,
			"byteOffset":3357440,
			"target":34963
		},
		{
			"buffer":0,
			"byteLength":23808,
			"byteOffset":3363200,
			"target":34962
		},
		{
			"buffer":0,
			"byteLength":23808,
			"byteOffset":3387008,
			"target":34962
		},
		{
			"buffer":0,
			"byteLength":15872,
			"byteOffset":3410816,
			"target":34962
		},
		{
			"buffer":0,
			"byteLength":15872,
			"byteOffset":3426688,
			"target":34962
		},
		{
			"buffer":0,
			"byteLength":23808,
			"byteOffset":3442560,
			"target":34962
		},
		{
			"buffer":0,
			"byteLength":23808,
			"byteOffset":3466368,
			"target":34962
		},
		{
			"buffer":0,
			"byteLength":15872,
			"byteOffset":3490176,
			"target":34962
		},
		{
			"buffer":0,
			"byteLength":15872,
			"byteOffset":3506048,
			"target":34962
		},
		{
			"buffer":0,
			"byteLength":23808,
			"byteOffset":3521920,
			"target":34962
		},
		{
			"buffer":0,
			"byteLength":23808,
			"byteOffset":3545728,
			"target":34962
		},
		{
			"buffer":0,
			"byteLength":15872,
			"byteOffset":3569536,
			"target":34962
		},
		{
			"buffer":0,
			"byteLength":15872,
			"byteOffset":3585408,
			"target":34962
		},
		{
			"buffer":0,
			"byteLength":5760,
			"byteOffset":3601280,
			"target":34963
		},
		{
			"buffer":0,
			"byteLength":23808,
			"byteOffset":3607040,
			"target":34962
		},
		{
			"buffer":0,
			"byteLength":23808,
			"byteOffset":3630848,
			"target":34962
		},
		{
			"buffer":0,
			"byteLength":15872,
			"byteOffset":3654656,
			"target":34962
		},
		{
			"buffer":0,
			"byteLength":15872,
			"byteOffset":3670528,
			"target":34962
		},
		{
			"buffer":0,
			"byteLength":5760,
			"byteOffset":3686400,
			"target":34963
		},
		{
			"buffer":0,
			"byteLength":23808,
			"byteOffset":3692160,
			"target":34962
		},
		{
			"buffer":0,
			"byteLength":23808,
			"byteOffset":3715968,
			"target":34962
		},
		{
			"buffer":0,
			"byteLength":15872,
			"byteOffset":3739776,
			"target":34962
		},
		{
			"buffer":0,
			"byteLength":15872,
			"byteOffset":3755648,
			"target":34962
		},
		{
			"buffer":0,
			"byteLength":23808,
			"byteOffset":3771520,
			"target":34962
		},
		{
			"buffer":0,
			"byteLength":23808,
			"byteOffset":3795328,
			"target":34962
		},
		{
			"buffer":0,
			"byteLength":15872,
			"byteOffset":3819136,
			"target":34962
		},
		{
			"buffer":0,
			"byteLength":15872,
			"byteOffset":3835008,
			"target":34962
		},
		{
			"buffer":0,
			"byteLength":23808,
			"byteOffset":3850880,
			"target":34962
		},
		{
			"buffer":0,
			"byteLength":23808,
			"byteOffset":3874688,
			"target":34962
		},
		{
			"buffer":0,
			"byteLength":15872,
			"byteOffset":3898496,
			"target":34962
		},
		{
			"buffer":0,
			"byteLength":15872,
			"byteOffset":3914368,
			"target":34962
		},
		{
			"buffer":0,
			"byteLength":23808,
			"byteOffset":3930240,
			"target":34962
		},
		{
			"buffer":0,
			"byteLength":23808,
			"byteOffset":3954048,
			"target":34962
		},
		{
			"buffer":0,
			"byteLength":15872,
			"byteOffset":3977856,
			"target":34962
		},
		{
			"buffer":0,
			"byteLength":15872,
			"byteOffset":3993728,
			"target":34962
		},
		{
			"buffer":0,
			"byteLength":23808,
			"byteOffset":4009600,
			"target":34962
		},
		{
			"buffer":0,
			"byteLength":23808,
			"byteOffset":4033408,
			"target":34962
		},
		{
			"buffer":0,
			"byteLength":15872,
			"byteOffset":4057216,
			"target":34962
		},
		{
			"buffer":0,
			"byteLength":15872,
			"byteOffset":4073088,
			"target":34962
		},
		{
			"buffer":0,
			"byteLength":23808,
			"byteOffset":4088960,
			"target":34962
		},
		{
			"buffer":0,
			"byteLength":23808,
			"byteOffset":4112768,
			"target":34962
		},
		{
			"buffer":0,
			"byteLength":15872,
			"byteOffset":4136576,
			"target":34962
		},
		{
			"buffer":0,
			"byteLength":15872,
			"byteOffset":4152448,
			"target":34962
		},
		{
			"buffer":0,
			"byteLength":23808,
			"byteOffset":4168320,
			"target":34962
		},
		{
			"buffer":0,
			"byteLength":23808,
			"byteOffset":4192128,
			"target":34962
		},
		{
			"buffer":0,
			"byteLength":15872,
			"byteOffset":4215936,
			"target":34962
		},
		{
			"buffer":0,
			"byteLength":15872,
			"byteOffset":4231808,
			"target":34962
		},
		{
			"buffer":0,
			"byteLength":5760,
			"byteOffset":4247680,
			"target":34963
		},
		{
			"buffer":0,
			"byteLength":23808,
			"byteOffset":4253440,
			"target":34962
		},
		{
			"buffer":0,
			"byteLength":23808,
			"byteOffset":4277248,
			"target":34962
		},
		{
			"buffer":0,
			"byteLength":15872,
			"byteOffset":4301056,
			"target":34962
		},
		{
			"buffer":0,
			"byteLength":15872,
			"byteOffset":4316928,
			"target":34962
		},
		{
			"buffer":0,
			"byteLength":23808,
			"byteOffset":4332800,
			"target":34962
		},
		{
			"buffer":0,
			"byteLength":23808,
			"byteOffset":4356608,
			"target":34962
		},
		{
			"buffer":0,
			"byteLength":15872,
			"byteOffset":4380416,
			"target":34962
		},
		{
			"buffer":0,
			"byteLength":15872,
			"byteOffset":4396288,
			"target":34962
		},
		{
			"buffer":0,
			"byteLength":5760,
			"byteOffset":4412160,
			"target":34963
		},
		{
			"buffer":0,
			"byteLength":23808,
			"byteOffset":4417920,
			"target":34962
		},
		{
			"buffer":0,
			"byteLength":23808,
			"byteOffset":4441728,
			"target":34962
		},
		{
			"buffer":0,
			"byteLength":15872,
			"byteOffset":4465536,
			"target":34962
		},
		{
			"buffer":0,
			"byteLength":15872,
			"byteOffset":4481408,
			"target":34962
		},
		{
			"buffer":0,
			"byteLength":5760,
			"byteOffset":4497280,
			"target":34963
		},
		{
			"buffer":0,
			"byteLength":23808,
			"byteOffset":4503040,
			"target":34962
		},
		{
			"buffer":0,
			"byteLength":23808,
			"byteOffset":4526848,
			"target":34962
		},
		{
			"buffer":0,
			"byteLength":15872,
			"byteOffset":4550656,
			"target":34962
		},
		{
			"buffer":0,
			"byteLength":15872,
			"byteOffset":4566528,
			"target":34962
		},
		{
			"buffer":0,
			"byteLength":5760,
			"byteOffset":4582400,
			"target":34963
		},
		{
			"buffer":0,
			"byteLength":23808,
			"byteOffset":4588160,
			"target":34962
		},
		{
			"buffer":0,
			"byteLength":23808,
			"byteOffset":4611968,
			"target":34962
		},
		{
			"buffer":0,
			"byteLength":15872,
			"byteOffset":4635776,
			"target":34962
		},
		{
			"buffer":0,
			"byteLength":15872,
			"byteOffset":4651648,
			"target":34962
		},
		{
			"buffer":0,
			"byteLength":5760,
			"byteOffset":4667520,
			"target":34963
		},
		{
			"buffer":0,
			"byteLength":23808,
			"byteOffset":4673280,
			"target":34962
		},
		{
			"buffer":0,
			"byteLength":23808,
			"byteOffset":4697088,
			"target":34962
		},
		{
			"buffer":0,
			"byteLength":15872,
			"byteOffset":4720896,
			"target":34962
		},
		{
			"buffer":0,
			"byteLength":15872,
			"byteOffset":4736768,
			"target":34962
		},
		{
			"buffer":0,
			"byteLength":23808,
			"byteOffset":4752640,
			"target":34962
		},
		{
			"buffer":0,
			"byteLength":23808,
			"byteOffset":4776448,
			"target":34962
		},
		{
			"buffer":0,
			"byteLength":15872,
			"byteOffset":4800256,
			"target":34962
		},
		{
			"buffer":0,
			"byteLength":15872,
			"byteOffset":4816128,
			"target":34962
		},
		{
			"buffer":0,
			"byteLength":23808,
			"byteOffset":4832000,
			"target":34962
		},
		{
			"buffer":0,
			"byteLength":23808,
			"byteOffset":4855808,
			"target":34962
		},
		{
			"buffer":0,
			"byteLength":15872,
			"byteOffset":4879616,
			"target":34962
		},
		{
			"buffer":0,
			"byteLength":15872,
			"byteOffset":4895488,
			"target":34962
		},
		{
			"buffer":0,
			"byteLength":5760,
			"byteOffset":4911360,
			"target":34963
		},
		{
			"buffer":0,
			"byteLength":23808,
			"byteOffset":4917120,
			"target":34962
		},
		{
			"buffer":0,
			"byteLength":23808,
			"byteOffset":4940928,
			"target":34962
		},
		{
			"buffer":0,
			"byteLength":15872,
			"byteOffset":4964736,
			"target":34962
		},
		{
			"buffer":0,
			"byteLength":15872,
			"byteOffset":4980608,
			"target":34962
		},
		{
			"buffer":0,
			"byteLength":5760,
			"byteOffset":4996480,
			"target":34963
		},
		{
			"buffer":0,
			"byteLength":23808,
			"byteOffset":5002240,
			"target":34962
		},
		{
			"buffer":0,
			"byteLength":23808,
			"byteOffset":5026048,
			"target":34962
		},
		{
			"buffer":0,
			"byteLength":15872,
			"byteOffset":5049856,
			"target":34962
		},
		{
			"buffer":0,
			"byteLength":15872,
			"byteOffset":5065728,
			"target":34962
		},
		{
			"buffer":0,
			"byteLength":23808,
			"byteOffset":5081600,
			"target":34962
		},
		{
			"buffer":0,
			"byteLength":23808,
			"byteOffset":5105408,
			"target":34962
		},
		{
			"buffer":0,
			"byteLength":15872,
			"byteOffset":5129216,
			"target":34962
		},
		{
			"buffer":0,
			"byteLength":15872,
			"byteOffset":5145088,
			"target":34962
		},
		{
			"buffer":0,
			"byteLength":23808,
			"byteOffset":5160960,
			"target":34962
		},
		{
			"buffer":0,
			"byteLength":23808,
			"byteOffset":5184768,
			"target":34962
		},
		{
			"buffer":0,
			"byteLength":15872,
			"byteOffset":5208576,
			"target":34962
		},
		{
			"buffer":0,
			"byteLength":15872,
			"byteOffset":5224448,
			"target":34962
		},
		{
			"buffer":0,
			"byteLength":23808,
			"byteOffset":5240320,
			"target":34962
		},
		{
			"buffer":0,
			"byteLength":23808,
			"byteOffset":5264128,
			"target":34962
		},
		{
			"buffer":0,
			"byteLength":15872,
			"byteOffset":5287936,
			"target":34962
		},
		{
			"buffer":0,
			"byteLength":15872,
			"byteOffset":5303808,
			"target":34962
		},
		{
			"buffer":0,
			"byteLength":5760,
			"byteOffset":5319680,
			"target":34963
		},
		{
			"buffer":0,
			"byteLength":23808,
			"byteOffset":5325440,
			"target":34962
		},
		{
			"buffer":0,
			"byteLength":23808,
			"byteOffset":5349248,
			"target":34962
		},
		{
			"buffer":0,
			"byteLength":15872,
			"byteOffset":5373056,
			"target":34962
		},
		{
			"buffer":0,
			"byteLength":15872,
			"byteOffset":5388928,
			"target":34962
		},
		{
			"buffer":0,
			"byteLength":23808,
			"byteOffset":5404800,
			"target":34962
		},
		{
			"buffer":0,
			"byteLength":23808,
			"byteOffset":5428608,
			"target":34962
		},
		{
			"buffer":0,
			"byteLength":15872,
			"byteOffset":5452416,
			"target":34962
		},
		{
			"buffer":0,
			"byteLength":15872,
			"byteOffset":5468288,
			"target":34962
		},
		{
			"buffer":0,
			"byteLength":23808,
			"byteOffset":5484160,
			"target":34962
		},
		{
			"buffer":0,
			"byteLength":23808,
			"byteOffset":5507968,
			"target":34962
		},
		{
			"buffer":0,
			"byteLength":15872,
			"byteOffset":5531776,
			"target":34962
		},
		{
			"buffer":0,
			"byteLength":15872,
			"byteOffset":5547648,
			"target":34962
		},
		{
			"buffer":0,
			"byteLength":5760,
			"byteOffset":5563520,
			"target":34963
		},
		{
			"buffer":0,
			"byteLength":23808,
			"byteOffset":5569280,
			"target":34962
		},
		{
			"buffer":0,
			"byteLength":23808,
			"byteOffset":5593088,
			"target":34962
		},
		{
			"buffer":0,
			"byteLength":15872,
			"byteOffset":5616896,
			"target":34962
		},
		{
			"buffer":0,
			"byteLength":15872,
			"byteOffset":5632768,
			"target":34962
		},
		{
			"buffer":0,
			"byteLength":23808,
			"byteOffset":5648640,
			"target":34962
		},
		{
			"buffer":0,
			"byteLength":23808,
			"byteOffset":5672448,
			"target":34962
		},
		{
			"buffer":0,
			"byteLength":15872,
			"byteOffset":5696256,
			"target":34962
		},
		{
			"buffer":0,
			"byteLength":15872,
			"byteOffset":5712128,
			"target":34962
		}
	],
	"buffers":[
		{
			"byteLength":5728000,
			"uri":"orb.bin"
		}
	]
}
