{
	"asset":{
		"generator":"Khronos glTF Blender I/O v4.4.55",
		"version":"2.0"
	},
	"extensionsUsed":[
		"KHR_materials_specular",
		"KHR_materials_ior"
	],
	"scene":0,
	"scenes":[
		{
			"name":"Scene",
			"nodes":[
				0
			]
		}
	],
	"nodes":[
		{
			"mesh":0,
			"name":"smaug_Smaug",
			"rotation":[
				0.7071068286895752,
				0,
				0,
				0.7071068286895752
			]
		}
	],
	"materials":[
		{
			"doubleSided":true,
			"name":"Victorian Mosaic Tiles",
			"normalTexture":{
				"index":0,
				"texCoord":1
			},
			"pbrMetallicRoughness":{
				"baseColorTexture":{
					"index":1,
					"texCoord":1
				},
				"metallicFactor":0,
				"metallicRoughnessTexture":{
					"index":2,
					"texCoord":1
				}
			}
		},
		{
			"doubleSided":true,
			"extensions":{
				"KHR_materials_specular":{
					"specularFactor":0.6163233518600464
				},
				"KHR_materials_ior":{
					"ior":1
				}
			},
			"name":"teeth",
			"pbrMetallicRoughness":{
				"metallicFactor":0,
				"roughnessFactor":0.23526382446289062
			}
		},
		{
			"doubleSided":true,
			"extensions":{
				"KHR_materials_specular":{
					"specularFactor":0.2692526876926422
				},
				"KHR_materials_ior":{
					"ior":1
				}
			},
			"name":"mouth",
			"pbrMetallicRoughness":{
				"metallicFactor":0,
				"roughnessFactor":0.17354023456573486
			}
		},
		{
			"doubleSided":true,
			"extensions":{
				"KHR_materials_specular":{
					"specularFactor":0.4341393709182739
				},
				"KHR_materials_ior":{
					"ior":1
				}
			},
			"name":"tongue",
			"pbrMetallicRoughness":{
				"metallicFactor":0,
				"roughnessFactor":0.16280657052993774
			}
		},
		{
			"doubleSided":true,
			"emissiveFactor":[
				1,
				1,
				1
			],
			"extensions":{
				"KHR_materials_specular":{
					"specularColorFactor":[
						1.621359944343567,
						1.621359944343567,
						1.621359944343567
					]
				},
				"KHR_materials_ior":{
					"ior":1
				}
			},
			"name":"eyes",
			"pbrMetallicRoughness":{
				"metallicFactor":0,
				"roughnessFactor":0.1339746117591858
			}
		}
	],
	"meshes":[
		{
			"name":"smaug_Smaug",
			"primitives":[
				{
					"attributes":{
						"POSITION":0,
						"NORMAL":1,
						"TEXCOORD_0":2,
						"TEXCOORD_1":3
					},
					"indices":4,
					"material":0
				},
				{
					"attributes":{
						"POSITION":5,
						"NORMAL":6,
						"TEXCOORD_0":7,
						"TEXCOORD_1":8
					},
					"indices":9,
					"material":1
				},
				{
					"attributes":{
						"POSITION":10,
						"NORMAL":11,
						"TEXCOORD_0":12,
						"TEXCOORD_1":13
					},
					"indices":14,
					"material":2
				},
				{
					"attributes":{
						"POSITION":15,
						"NORMAL":16,
						"TEXCOORD_0":17,
						"TEXCOORD_1":18
					},
					"indices":19,
					"material":3
				},
				{
					"attributes":{
						"POSITION":20,
						"NORMAL":21,
						"TEXCOORD_0":22,
						"TEXCOORD_1":23
					},
					"indices":24,
					"material":4
				},
				{
					"attributes":{
						"POSITION":25,
						"NORMAL":26,
						"TEXCOORD_0":27,
						"TEXCOORD_1":28
					},
					"indices":29,
					"material":0
				}
			]
		}
	],
	"textures":[
		{
			"sampler":0,
			"source":0
		},
		{
			"sampler":0,
			"source":1
		},
		{
			"sampler":0,
			"source":2
		}
	],
	"images":[
		{
			"mimeType":"image/jpeg",
			"name":"victorian_mosaic_tiles_03_normal",
			"uri":"victorian_mosaic_tiles_03_normal.jpg"
		},
		{
			"mimeType":"image/jpeg",
			"name":"victorian_mosaic_tiles_03_basecolor",
			"uri":"victorian_mosaic_tiles_03_basecolor.jpg"
		},
		{
			"mimeType":"image/png",
			"name":"victorian_mosaic_tiles_03_roughness",
			"uri":"victorian_mosaic_tiles_03_roughness.png"
		}
	],
	"accessors":[
		{
			"bufferView":0,
			"componentType":5126,
			"count":4852,
			"max":[
				26.314838409423828,
				23.11635971069336,
				0.34800198674201965
			],
			"min":[
				-26.314838409423828,
				-89.42925262451172,
				-29.178443908691406
			],
			"type":"VEC3"
		},
		{
			"bufferView":1,
			"componentType":5126,
			"count":4852,
			"type":"VEC3"
		},
		{
			"bufferView":2,
			"componentType":5126,
			"count":4852,
			"type":"VEC2"
		},
		{
			"bufferView":3,
			"componentType":5126,
			"count":4852,
			"type":"VEC2"
		},
		{
			"bufferView":4,
			"componentType":5123,
			"count":14322,
			"type":"SCALAR"
		},
		{
			"bufferView":5,
			"componentType":5126,
			"count":3000,
			"max":[
				0.8831760287284851,
				22.38507080078125,
				-15.004622459411621
			],
			"min":[
				-0.8831760287284851,
				19.611351013183594,
				-17.551298141479492
			],
			"type":"VEC3"
		},
		{
			"bufferView":6,
			"componentType":5126,
			"count":3000,
			"type":"VEC3"
		},
		{
			"bufferView":7,
			"componentType":5126,
			"count":3000,
			"type":"VEC2"
		},
		{
			"bufferView":8,
			"componentType":5126,
			"count":3000,
			"type":"VEC2"
		},
		{
			"bufferView":9,
			"componentType":5123,
			"count":17280,
			"type":"SCALAR"
		},
		{
			"bufferView":10,
			"componentType":5126,
			"count":274,
			"max":[
				0.9752129912376404,
				22.55038833618164,
				-14.75440788269043
			],
			"min":[
				-0.9752129912376404,
				19.33377456665039,
				-17.841665267944336
			],
			"type":"VEC3"
		},
		{
			"bufferView":11,
			"componentType":5126,
			"count":274,
			"type":"VEC3"
		},
		{
			"bufferView":12,
			"componentType":5126,
			"count":274,
			"type":"VEC2"
		},
		{
			"bufferView":13,
			"componentType":5126,
			"count":274,
			"type":"VEC2"
		},
		{
			"bufferView":14,
			"componentType":5123,
			"count":1392,
			"type":"SCALAR"
		},
		{
			"bufferView":15,
			"componentType":5126,
			"count":50,
			"max":[
				0.8520830273628235,
				20.90848159790039,
				-15.05318832397461
			],
			"min":[
				-0.8520830273628235,
				18.54424476623535,
				-17.464303970336914
			],
			"type":"VEC3"
		},
		{
			"bufferView":16,
			"componentType":5126,
			"count":50,
			"type":"VEC3"
		},
		{
			"bufferView":17,
			"componentType":5126,
			"count":50,
			"type":"VEC2"
		},
		{
			"bufferView":18,
			"componentType":5126,
			"count":50,
			"type":"VEC2"
		},
		{
			"bufferView":19,
			"componentType":5123,
			"count":288,
			"type":"SCALAR"
		},
		{
			"bufferView":20,
			"componentType":5126,
			"count":130,
			"max":[
				1.4851340055465698,
				21.341028213500977,
				-18.346920013427734
			],
			"min":[
				-1.4851340055465698,
				20.676633834838867,
				-19.00286865234375
			],
			"type":"VEC3"
		},
		{
			"bufferView":21,
			"componentType":5126,
			"count":130,
			"type":"VEC3"
		},
		{
			"bufferView":22,
			"componentType":5126,
			"count":130,
			"type":"VEC2"
		},
		{
			"bufferView":23,
			"componentType":5126,
			"count":130,
			"type":"VEC2"
		},
		{
			"bufferView":24,
			"componentType":5123,
			"count":672,
			"type":"SCALAR"
		},
		{
			"bufferView":25,
			"componentType":5126,
			"count":118,
			"max":[
				26.07369041442871,
				3.3400869369506836,
				-1.925333023071289
			],
			"min":[
				-26.07369041442871,
				-23.31684684753418,
				-24.758081436157227
			],
			"type":"VEC3"
		},
		{
			"bufferView":26,
			"componentType":5126,
			"count":118,
			"type":"VEC3"
		},
		{
			"bufferView":27,
			"componentType":5126,
			"count":118,
			"type":"VEC2"
		},
		{
			"bufferView":28,
			"componentType":5126,
			"count":118,
			"type":"VEC2"
		},
		{
			"bufferView":29,
			"componentType":5123,
			"count":282,
			"type":"SCALAR"
		}
	],
	"bufferViews":[
		{
			"buffer":0,
			"byteLength":58224,
			"byteOffset":0,
			"target":34962
		},
		{
			"buffer":0,
			"byteLength":58224,
			"byteOffset":58224,
			"target":34962
		},
		{
			"buffer":0,
			"byteLength":38816,
			"byteOffset":116448,
			"target":34962
		},
		{
			"buffer":0,
			"byteLength":38816,
			"byteOffset":155264,
			"target":34962
		},
		{
			"buffer":0,
			"byteLength":28644,
			"byteOffset":194080,
			"target":34963
		},
		{
			"buffer":0,
			"byteLength":36000,
			"byteOffset":222724,
			"target":34962
		},
		{
			"buffer":0,
			"byteLength":36000,
			"byteOffset":258724,
			"target":34962
		},
		{
			"buffer":0,
			"byteLength":24000,
			"byteOffset":294724,
			"target":34962
		},
		{
			"buffer":0,
			"byteLength":24000,
			"byteOffset":318724,
			"target":34962
		},
		{
			"buffer":0,
			"byteLength":34560,
			"byteOffset":342724,
			"target":34963
		},
		{
			"buffer":0,
			"byteLength":3288,
			"byteOffset":377284,
			"target":34962
		},
		{
			"buffer":0,
			"byteLength":3288,
			"byteOffset":380572,
			"target":34962
		},
		{
			"buffer":0,
			"byteLength":2192,
			"byteOffset":383860,
			"target":34962
		},
		{
			"buffer":0,
			"byteLength":2192,
			"byteOffset":386052,
			"target":34962
		},
		{
			"buffer":0,
			"byteLength":2784,
			"byteOffset":388244,
			"target":34963
		},
		{
			"buffer":0,
			"byteLength":600,
			"byteOffset":391028,
			"target":34962
		},
		{
			"buffer":0,
			"byteLength":600,
			"byteOffset":391628,
			"target":34962
		},
		{
			"buffer":0,
			"byteLength":400,
			"byteOffset":392228,
			"target":34962
		},
		{
			"buffer":0,
			"byteLength":400,
			"byteOffset":392628,
			"target":34962
		},
		{
			"buffer":0,
			"byteLength":576,
			"byteOffset":393028,
			"target":34963
		},
		{
			"buffer":0,
			"byteLength":1560,
			"byteOffset":393604,
			"target":34962
		},
		{
			"buffer":0,
			"byteLength":1560,
			"byteOffset":395164,
			"target":34962
		},
		{
			"buffer":0,
			"byteLength":1040,
			"byteOffset":396724,
			"target":34962
		},
		{
			"buffer":0,
			"byteLength":1040,
			"byteOffset":397764,
			"target":34962
		},
		{
			"buffer":0,
			"byteLength":1344,
			"byteOffset":398804,
			"target":34963
		},
		{
			"buffer":0,
			"byteLength":1416,
			"byteOffset":400148,
			"target":34962
		},
		{
			"buffer":0,
			"byteLength":1416,
			"byteOffset":401564,
			"target":34962
		},
		{
			"buffer":0,
			"byteLength":944,
			"byteOffset":402980,
			"target":34962
		},
		{
			"buffer":0,
			"byteLength":944,
			"byteOffset":403924,
			"target":34962
		},
		{
			"buffer":0,
			"byteLength":564,
			"byteOffset":404868,
			"target":34963
		}
	],
	"samplers":[
		{
			"magFilter":9729,
			"minFilter":9987
		}
	],
	"buffers":[
		{
			"byteLength":405432,
			"uri":"dragon.bin"
		}
	]
}
